<svg version="1.1" id="Layer_1" xmlns="http://www.w3.org/2000/svg" xmlns:xlink="http://www.w3.org/1999/xlink" x="0px" y="0px" viewBox="0 0 204.77002 199.22673" style="enable-background:new 0 0 204.77002 199.22673;" xml:space="preserve"><defs><style> .svg-style-0 {  fill: oklch(0.24 0.02 90); }</style></defs><path id="path-01_00000056411176183308275430000006290811601428890287_" d="M148.4895,57.63615c0.95923,0,0.95764,1.48828,0,1.48828
	C147.53027,59.12444,147.53186,57.63615,148.4895,57.63615z M145.38623,63.83757c-0.00293,0.07666,0.01306,0.14819,0.04785,0.21436
	c0.02246,0.06909,0.06079,0.12878,0.11511,0.1792c0.05042,0.05432,0.11023,0.09265,0.1792,0.11511
	c0.06628,0.03479,0.13782,0.0509,0.21448,0.04797c0.04932-0.00659,0.09863-0.01331,0.14795-0.0199
	c0.09424-0.02649,0.17615-0.0741,0.24561-0.14319c0.02905-0.0376,0.05811-0.07507,0.08704-0.11255
	c0.05042-0.08691,0.07568-0.18054,0.07605-0.28101c-0.00659-0.04932-0.01331-0.09863-0.0199-0.14795
	c-0.01721-0.07251-0.05042-0.1355-0.09973-0.18933c-0.01611-0.02502-0.04395-0.0387-0.0647-0.05945
	c-0.01746-0.03369-0.03247-0.06885-0.06165-0.09595c-0.03979-0.04285-0.08691-0.07312-0.14148-0.09082
	c-0.05225-0.02759-0.10864-0.04016-0.16919-0.03784c-0.03906,0.00513-0.07788,0.0105-0.11694,0.01562
	c-0.07434,0.021-0.13904,0.05859-0.19385,0.11304c-0.02246,0.02905-0.04468,0.05798-0.06714,0.08691
	c-0.00537,0.00403-0.0105,0.00806-0.01575,0.01221c-0.05432,0.05029-0.09265,0.11011-0.11511,0.17908
	C145.39929,63.68938,145.3833,63.76091,145.38623,63.83757z M150.76855,63.94426c-0.00635-0.04761-0.01282-0.09521-0.01929-0.14282
	c-0.0033-0.02539-0.00024-0.05078,0.00916-0.07593c-0.00281-0.02612,0.00061-0.05054,0.01038-0.07324
	c0.00098-0.00256,0.00195-0.005,0.00293-0.00757c0.00159-0.00415,0.00305-0.00854,0.00439-0.01282
	c0.00208-0.0293-0.00781-0.05847,0-0.08777c0.01392-0.05872,0.04089-0.10986,0.08081-0.15332
	c0.03174-0.04919,0.07397-0.08789,0.12659-0.11621c0.07031-0.04089,0.14624-0.0614,0.22766-0.06177
	c0.04175,0.00488,0.10779,0.00806,0.15588,0.02368c0.0437,0.01416,0.08704,0.03516,0.12878,0.05371
	c0.00586,0.00269,0.01172,0.00537,0.01758,0.00854c0.04858,0.02649,0.09094,0.06567,0.13318,0.1001
	c0.005,0.00403,0.00989,0.0083,0.0144,0.0127c0.01843,0.01782,0.03064,0.03833,0.04724,0.05981
	c0.03333,0.03345,0.0564,0.073,0.06909,0.11853c0.01367,0.02148,0.02295,0.04431,0.02808,0.06848
	c0.02246,0.07153,0.02563,0.14307,0.00964,0.21436c-0.00012,0.04858-0.01233,0.09387-0.03674,0.13574
	c-0.02173,0.06665-0.05872,0.12439-0.11108,0.1731c-0.01294,0.01001-0.02576,0.01978-0.03857,0.02979
	c-0.01978,0.02661-0.03979,0.05371-0.06104,0.07886c-0.00427,0.00488-0.00879,0.00977-0.01343,0.0144
	c-0.00488,0.00464-0.01001,0.00891-0.01514,0.01318c-0.03271,0.02686-0.06677,0.05408-0.10181,0.07812
	c-0.06848,0.03979-0.14246,0.05969-0.22168,0.05994c-0.03906-0.00525-0.07788-0.01038-0.11694-0.01575
	c-0.05713-0.01355-0.10693-0.03979-0.14941-0.07861c-0.03296-0.01953-0.05933-0.04578-0.07886-0.07886
	c-0.03882-0.04248-0.06494-0.09229-0.07861-0.14941c-0.00525-0.03894-0.0105-0.07788-0.01562-0.11682
	c-0.00061-0.01453,0.00781-0.02649,0.00903-0.04065C150.78137,63.96428,150.77148,63.95634,150.76855,63.94426z M151.04492,64.26762
	c0.00244,0.00427,0.005,0.00867,0.00745,0.01306c0.02869,0.01208,0.0575,0.02417,0.0863,0.03638
	C151.10303,64.30803,151.07581,64.28484,151.04492,64.26762z M150.84985,63.79118c0.01538-0.0271,0.02734-0.05615,0.05054-0.07874
	c-0.0127,0.01648-0.02551,0.03296-0.03833,0.04944C150.85803,63.77165,150.85388,63.78142,150.84985,63.79118z M150.76855,63.70964
	c0.00244,0.01904,0.005,0.03809,0.00757,0.05701c-0.00879-0.03796-0.00098-0.07593,0-0.11389
	C150.77356,63.6718,150.771,63.6906,150.76855,63.70964z M143.97742,60.21526c0.06445,0.02979,0.12878,0.05969,0.19324,0.08948
	c0.01587,0.00732,0.03149,0.01465,0.04736,0.02185c0.06201,0.02625,0.12402,0.05249,0.18604,0.07861
	c0.13818,0.03711,0.27637,0.03711,0.41431,0c0.06213-0.02612,0.12427-0.05237,0.18628-0.07861
	c0.00391-0.00269,0.00781-0.00513,0.01172-0.00781c0.03003-0.02014,0.06018-0.04028,0.09033-0.0603
	c0.10522-0.06226,0.18896-0.146,0.25122-0.25122c0.06323-0.10938,0.09521-0.22705,0.09558-0.35352
	c-0.00037-0.12646-0.03235-0.24426-0.09558-0.35352c-0.06226-0.10522-0.146-0.18896-0.25122-0.25122
	c-0.02881-0.01929-0.05762-0.03845-0.08643-0.05762c-0.00513-0.00354-0.0105-0.00708-0.01562-0.0105
	c-0.06201-0.02625-0.12415-0.05249-0.18628-0.07861c-0.10352-0.03247-0.20703-0.03711-0.31067-0.01392
	c-0.10364,0.00464-0.20032,0.03552-0.28967,0.09253c-0.01587,0.00708-0.03149,0.01453-0.04736,0.02173
	c-0.06445,0.02991-0.12878,0.05969-0.19324,0.0896c-0.09778,0.05774-0.17554,0.1355-0.23328,0.23315
	c-0.05884,0.10156-0.0885,0.21094-0.08887,0.32837c0.00037,0.11743,0.03003,0.22681,0.08887,0.32825
	C143.80188,60.07976,143.87964,60.15739,143.97742,60.21526z M119.50732,33.30022c0.27246,0.63477,0.42554,1.34839,0.55701,2.02539
	c0.25317,1.30469,0.2533,2.68921,0.14465,4.01062c-0.0332,0.4043,0.64038,0.50037,0.71362,0.09656
	c0.12842-0.70752,0.20093-1.4021,0.1394-2.12048c-0.0603-0.7063-0.17981-1.40881-0.36426-2.09338
	c-0.36304-1.34814-1.01807-2.67981-1.80896-3.82776c-0.13123-0.19055-0.44275-0.01416-0.31372,0.18335
	C118.93359,32.12297,119.24878,32.69792,119.50732,33.30022z M151.3811,60.61626c0.07495,0.12683,0.1759,0.22766,0.30273,0.30261
	c0.13159,0.07642,0.27344,0.11475,0.42578,0.11523c0.08521-0.00024,0.1665-0.01538,0.24536-0.03943
	c0.06177-0.01892,0.12256-0.04211,0.18042-0.07581c0.02515-0.01733,0.05029-0.03467,0.07544-0.05212
	c0.01172-0.00818,0.02344-0.01624,0.03516-0.02429c0.00488-0.00354,0.01001-0.00708,0.01501-0.0105
	c0.19543-0.13623,0.203-0.15076,0.3429-0.34558c0.04102-0.05713,0.08203-0.11438,0.12305-0.17151
	c0.08752-0.15076,0.13159-0.31348,0.13208-0.48804c-0.01147-0.08557-0.02307-0.17126-0.03455-0.25684
	c-0.04602-0.16382-0.12878-0.30615-0.24866-0.42676c-0.08765-0.09424-0.19128-0.16089-0.31116-0.19983
	c-0.11511-0.06055-0.23938-0.08826-0.37244-0.08337c-0.13306-0.00488-0.25732,0.02283-0.37256,0.08337
	c-0.11987,0.03894-0.22351,0.10559-0.31104,0.19983c-0.00159,0.00159-0.00171,0.00391-0.00317,0.00549
	c-0.11743,0.11975-0.2002,0.2594-0.24561,0.42126c-0.02051,0.06445-0.04102,0.12891-0.06152,0.1936
	c-0.04614,0.14551-0.0376,0.28162-0.03247,0.42676C151.26636,60.3427,151.30469,60.48466,151.3811,60.61626z M95.10522,13.36101
	c0.95752,0,0.95923-1.48828,0-1.48828C94.14746,11.87273,94.146,13.36101,95.10522,13.36101z M138.84851,64.23528
	c1.21399,0,1.21594-1.88672,0-1.88672C137.63452,62.34856,137.63245,64.23528,138.84851,64.23528z M140.27808,59.86125
	c0.04993,0.05371,0.10901,0.09167,0.17725,0.11389c0.06567,0.03455,0.13647,0.05029,0.21216,0.04749
	c0.04883-0.00659,0.09766-0.01318,0.14648-0.01978c0.09326-0.02612,0.17432-0.07324,0.24304-0.1416
	c0.02869-0.03711,0.0575-0.07422,0.08606-0.11145c0.0498-0.08594,0.07495-0.17859,0.0752-0.27795
	c-0.00586-0.06067-0.01172-0.12134-0.01758-0.18188c0.00293-0.07349-0.01245-0.14197-0.0459-0.20557
	c-0.02148-0.06604-0.05823-0.12329-0.11011-0.17151c-0.04834-0.052-0.10559-0.08875-0.17163-0.11023
	c-0.0636-0.03345-0.13208-0.04871-0.20557-0.0459c-0.04712,0.00635-0.09448,0.0127-0.1416,0.01904
	c-0.09033,0.02527-0.16882,0.07104-0.23535,0.13708c-0.02783,0.03601-0.05566,0.0719-0.08337,0.10791
	c-0.04822,0.08313-0.07251,0.17285-0.07288,0.26917c-0.00586,0.06055-0.01172,0.12122-0.01758,0.18188
	c-0.00281,0.07581,0.01294,0.14648,0.04749,0.21216C140.1864,59.75237,140.22437,59.81145,140.27808,59.86125z M126.3252,95.98283
	c-6.70752-1.67676-13.19885-5.55334-16.94861-11.49487c-0.09631-0.15259-0.33484-0.01514-0.2428,0.14185
	c3.67578,6.27344,9.57812,11.2146,16.87354,12.50562C126.75195,97.26726,127.0835,96.17241,126.3252,95.98283z M153.3092,88.98894
	c0.04773-0.14868-0.19299-0.2561-0.25696-0.10828c-0.45972,1.05994-1.1991,1.97375-1.91968,2.86877
	c-0.71411,0.88696-1.53247,1.71167-2.42285,2.42163c-0.87012,0.6936-1.83936,1.27185-2.85059,1.73389
	c-1.05896,0.48364-2.177,0.75537-3.2594,1.16724c-0.66614,0.25342-0.62512,1.32495,0.17761,1.31201
	c1.27515-0.02026,2.50781-0.50537,3.63989-1.07251c1.11694-0.55945,2.15747-1.29871,3.08984-2.12781
	c0.91272-0.81152,1.71301-1.73352,2.37598-2.75964C152.56909,91.36247,152.92664,90.18144,153.3092,88.98894z M173.29834,98.81035
	c-3.1792,2.24841-6.78247,3.26892-10.47827,3.45227c-4.17383,0.20691-8.46582-0.6571-12.40393-2.08435
	c-0.72327-0.26208-1.03979,0.89624-0.31775,1.15271c4.12488,1.46484,8.57788,2.19775,12.86719,1.78809
	c3.74243-0.35742,7.3606-1.58179,10.52197-3.98486C173.67517,98.9915,173.49829,98.66887,173.29834,98.81035z M89.62988,15.32829
	c1.21411,0,1.21606-1.88672,0-1.88672C88.41602,13.44158,88.41394,15.32829,89.62988,15.32829z M155.03809,65.12737
	c0.95776,0,0.95923-1.48828,0-1.48828C154.08057,63.63908,154.07886,65.12737,155.03809,65.12737z M115.76196,71.30217
	c-0.36279,0.35303-0.69312,0.73669-0.98755,1.14868c-0.30591,0.42847-0.61584,0.82251-0.85547,1.29541
	c-0.22754,0.44922-0.41846,0.92004-0.56567,1.40173c-0.16089,0.52698-0.20801,1.04626-0.20337,1.59607
	c0.00391,0.4812,0.66919,0.45032,0.72656,0c0.05884-0.46277,0.15649-0.92651,0.24438-1.38452
	c0.08911-0.46509,0.21851-0.92249,0.38623-1.36536c0.15906-0.41956,0.33228-0.88647,0.57678-1.26282
	c0.27344-0.4209,0.58752-0.81055,0.93494-1.17236C116.18091,71.3903,115.92993,71.13872,115.76196,71.30217z M164.90161,84.66521
	c0.12329,0.46216,0.80908,0.26611,0.71191-0.19617c-0.54346-2.58606-1.46997-5.0636-2.71875-7.39124
	c-1.24817-2.32666-2.8186-4.38257-4.52722-6.38586c-0.0885-0.10376-0.23547,0.04578-0.14917,0.14917
	C161.50159,74.77507,163.59106,79.75383,164.90161,84.66521z M175.98096,93.16521c0.24084,0.56763,1.23853,0.15649,1.00659-0.42456
	c-4.05688-10.16382-10.33752-19.11841-17.82959-27.02881c-0.08862-0.09351-0.22705,0.04651-0.14087,0.14087
	C166.28992,73.81535,171.78406,83.27592,175.98096,93.16521z M135.21045,60.5468c-0.95776,0-0.95923,1.48828,0,1.48828
	C136.16797,62.03508,136.16968,60.5468,135.21045,60.5468z M120.54614,69.18742c-0.49707,0.42114-0.9624,0.8772-1.38867,1.37
	c-0.4353,0.5033-0.88599,0.9635-1.26831,1.51331c-0.37122,0.53345-0.70142,1.09546-0.9856,1.67993
	c-0.28589,0.58838-0.66284,1.27246-0.59485,1.94568c0.04407,0.43616,0.56128,0.59485,0.81897,0.2218
	c0.35205-0.51001,0.43127-1.17432,0.62964-1.7522c0.20496-0.59668,0.45886-1.17395,0.75586-1.73047
	c0.29028-0.5437,0.59277-1.13379,0.98608-1.60876c0.40454-0.48865,0.84692-0.94348,1.32031-1.36584
	C121.00684,69.29375,120.73401,69.02812,120.54614,69.18742z M114.04224,29.65495c0.42041,0.76099,0.71497,1.62097,0.98474,2.44726
	c0.26404,0.80908,0.46899,1.63733,0.6123,2.47632c0.14636,0.85718,0.11267,1.7699,0.38245,2.6001
	c0.12427,0.38232,0.76025,0.45264,0.84753,0c0.17249-0.8938-0.06616-1.82275-0.28259-2.6908
	c-0.22046-0.8844-0.5127-1.74927-0.86646-2.58911c-0.70056-1.66309-1.69531-3.26575-2.81958-4.67627
	c-0.13525-0.1698-0.4375,0.05994-0.30371,0.23438C113.13184,28.15373,113.61719,28.88567,114.04224,29.65495z M61.13733,19.37859
	c-5.70691,4.56934-10.44177,10.06958-13.34167,16.83838c-0.18286,0.42688,0.43091,0.80786,0.63757,0.37256
	c3.04883-6.42187,7.30554-12.54931,12.85327-17.06177C61.39209,19.44182,61.24207,19.2946,61.13733,19.37859z M64.11792,61.78801
	c-10.78394,1.71252-22.8606,0.26782-30.71997-8.052c-0.16663-0.17651-0.42566,0.08643-0.26514,0.26514
	c7.89087,8.78198,20.11523,10.66309,31.30298,8.93958C65.19238,62.82414,64.87292,61.66814,64.11792,61.78801z M98.15674,63.57487
	c10.19019,0.05225,19.58105-4.86389,26.25793-12.38867c0.11938-0.13464-0.07471-0.33228-0.19885-0.19897
	c-6.65857,7.15417-16.40625,10.95447-26.05908,11.39233C97.39185,62.41423,97.38281,63.57097,98.15674,63.57487z M67.31543,12.36614
	c0.95764,0,0.95923-1.48828,0-1.48828C66.35791,10.87786,66.3562,12.36614,67.31543,12.36614z M71.42432,6.66765
	c0.03809,0.09351,0.0647,0.19141,0.12366,0.27271c0.01331,0.01855,0.02673,0.03711,0.04016,0.05566
	c0.02783,0.03833,0.05566,0.07666,0.0835,0.11523c0.04407,0.05688,0.08801,0.11377,0.13208,0.17065
	c0.07642,0.08228,0.16687,0.14038,0.27148,0.17456c0.0658,0.03809,0.13672,0.05737,0.21289,0.05762
	c0.11218,0.02515,0.22437,0.02002,0.33643-0.01514c0.06714-0.02832,0.1344-0.05664,0.20166-0.08496
	c0.05688-0.04395,0.11377-0.08789,0.17065-0.13208c0.08228-0.07642,0.1405-0.16675,0.17456-0.27148
	c0.05273-0.10059,0.0769-0.20898,0.07263-0.32495c0.00354-0.04541,0.00696-0.09058,0.01062-0.13574
	c0.00183-0.02441,0.00366-0.04858,0.00562-0.073c0.00806-0.10278-0.01758-0.20386-0.03418-0.30566
	c-0.01562-0.09497-0.03101-0.19019-0.04663-0.28516c-0.02991-0.12573-0.08765-0.23535-0.1731-0.32886
	c-0.06812-0.10522-0.15845-0.18823-0.27124-0.24902c-0.11084-0.07056-0.23071-0.10889-0.35938-0.11475
	c-0.12854-0.02881-0.25708-0.02295-0.3855,0.01733c-0.07703,0.03247-0.15405,0.06494-0.23096,0.09741
	c-0.14526,0.08594-0.26099,0.20166-0.34692,0.34692c-0.03247,0.0769-0.06494,0.15405-0.09741,0.23096
	c-0.04614,0.17139-0.04614,0.34253,0,0.51392C71.35132,6.48918,71.38794,6.57854,71.42432,6.66765z M75.58875,59.61638
	c-1.37244-0.76074-2.7738-1.43774-4.06018-2.34644c-1.31909-0.93188-2.51465-2.02295-3.5647-3.25049
	c-1.02808-1.20178-1.9104-2.54663-2.63367-3.95239c-0.74756-1.45337-1.45447-2.95825-1.78882-4.56482
	c-0.03772-0.18127-0.29468-0.099-0.27112,0.07483c0.23047,1.7085,0.50378,3.37915,1.1759,4.97803
	c0.65027,1.54688,1.50415,2.97339,2.53381,4.29749c2.00659,2.5802,4.86414,5.14172,8.09399,5.98462
	C75.79468,61.02531,76.26392,59.9904,75.58875,59.61638z M204.77002,98.61662c0,1.79004-1.28992,3.29004-2.98999,3.63013
	c-1.26001,52.23999-43.03003,94.61987-95.03003,96.87988l0.01001,0.1001h-0.02991c-0.09998,0-0.2301-0.03003-0.37-0.08008
	c-1.32007,0.05005-2.64001,0.08008-3.96997,0.08008c-54.01001,0-98.1001-43.28003-99.40015-96.97998
	C1.29004,101.90666,0,100.40666,0,98.61662c0-2.04993,1.67004-3.70996,3.71008-3.70996c2.03992,0,3.70007,1.66003,3.70007,3.70996
	c0,1.77002-1.25,3.26001-2.92017,3.62012c1.03003,42.13989,28.82007,77.76001,66.99011,90.48999
	c-25.16003-10.97998-44.93005-35.07007-52.45007-66.11011c-1.8999-0.15991-3.3999-1.73999-3.3999-3.67993
	c0-2.04004,1.65991-3.69995,3.69995-3.69995c2.05005,0,3.70996,1.65991,3.70996,3.69995c0,1.63-1.05994,2.98999-2.51001,3.48999
	c2.18005,8.95996,5.41003,17.32007,9.48999,24.94995c-1.73999-8.25,0.14014-16.62988,1.36011-20.73999
	c-1.20007-0.60999-2.03003-1.84998-2.03003-3.28003c0-2.04993,1.65991-3.70996,3.69995-3.70996s3.70996,1.66003,3.70996,3.70996
	c0,2.04004-1.66992,3.70007-3.70996,3.70007c-0.06995,0-0.13-0.02002-0.19995-0.02002
	c-1.58008,5.45007-4.43994,18.90002,2.25,28.66003l-0.07007,0.05005c8.40002,12.54993,19.36011,22.53992,31.88013,29.12988
	c-1.81006-1.53003-3.24011-3.21997-4.26001-5.06995c-3.56006-6.46008-2.61011-15.12,2.88989-26.42004
	c-0.05005-3.86987-0.52002-7.70996-1.37988-11.44995c-0.15015-0.02002-0.31006-0.05005-0.49011-0.08008
	c-3.54993-0.67993-6.87-2.57996-9.31995-5.22998c-2.8501-3.07996-4.15002-7-4.93994-11.04004
	c-0.91016-4.61987-1.44006-9.30994-1.67017-14.00989c-0.03992-0.72009,0.81006-0.90002,1.28003-0.53003
	c6.36011,5.04993,13.87012,9.04993,17.67004,16.58997c1.67004,3.54004,1.87,7.44006,0.38,11.09009
	c-0.37,0.8999-0.82007,1.78003-1.37,2.58997c-0.13,0.18005-0.25,0.30994-0.38,0.42004
	c0.79004,2.97998,1.30005,6.04993,1.51001,9.13989c1.39001-2.62988,3.02002-5.13989,4.82007-7.53003
	c1.26001-6.92993,1.90991-13.96997,2-21.01001c0.13989-10.56982-1.15015-21.00989-1.62012-31.54993
	c-0.52002-0.04993-1.04004-0.13-1.55994-0.22998c-2.14001-0.40002-4.18005-1.19006-6.05005-2.28992
	c-0.90002-0.53003-1.75-1.13013-2.53992-1.80005c-0.88013-0.73999-1.5-1.64001-2.23999-2.5
	c-0.05005-0.05005-0.05005-0.11011-0.03003-0.17004c0.04004-0.07996,0.1499-0.13,0.23999-0.03992
	c1.40991,1.3999,3.38,2.60986,5.13989,3.5199c1.72009,0.88,3.59009,1.52002,5.4801,1.85999c0.5,0.1001,1,0.16003,1.51001,0.20996
	c-0.14001-4.37988-0.01001-8.7699,0.65002-13.09985c-1.68005,2.08984-4.12012,3.70996-6.41003,4.84985
	c-2.17004,1.08008-4.46008,1.86011-6.80994,2.42017C57.95007,87.85661,56.4801,88.12663,55,88.3167
	c-8.44995,1.12-18.02991-0.29993-23.20996-7.81995c-0.20996-0.31006-0.09998-0.59009,0.13-0.76001
	c-1.40002-0.16003-2.79993-0.38013-4.17004-0.70007c-6.86987-1.58997-13.78992-5.13-18.32996-10.65002
	c-0.13-0.1499-0.12-0.32996-0.04993-0.45996c-0.38013-0.57007-0.70996-1.15991-0.95996-1.81006
	c-2.1001-5.40991,1.5199-11.1499,5.67993-14.40991c0.55005-0.43005,1.10999-0.67004,1.51001-1.17004
	c0.38989-0.47998,0.70996-1.03992,1.05005-1.53992c1.27991-1.86011,2.56995-3.69006,3.90991-5.5
	c3.35999-4.57007,6.89001-8.92004,11.06006-12.78003c6.09998-5.65002,12.25-11.25,18.65991-16.56006
	c3.13013-2.58984,6.32007-5.12988,9.61011-7.54004c2.98999-2.19995,6.13989-4.26001,9.67993-5.44995
	C76.56005-1.19343,84.26,0.27679,90.78002,3.34661c6.97998,3.29004,12.88013,8.43994,18.75,13.3501
	c4.11011,3.42993,8.04004,7.06006,11.95007,10.70996c5.65002,5.26001,11.21996,10.61011,16.71998,16.03003
	c2.77002,1.82007,5.53003,4,7.09998,6.98999c0.64001,1.22998,1.02002,2.54004,1.19995,3.88
	c4.27002,0.14001,8.27002,1.55994,11.61011,4.42004c4.33997,3.72998,7.96997,8.51001,11.5,12.98999
	c3.41992,4.33997,6.97998,8.72998,9.98999,13.35999c2.16992,3.31995,3.87,6.95996,5.5,10.55994
	c0.46997,1.04004,0.83997,2.25,1.41992,3.22998c0.29004,0.48999,0.64014,0.71997,1.05005,1.21997
	c0.72998,0.87012,1.35999,1.80005,1.85999,2.82007c1.54004,3.19995,1.53003,6.86011-0.88,9.39001
	c0,0.09998-0.03003,0.19006-0.12,0.27002c-4.60999,4-11.26001,5.52991-17.33997,5.16003
	c0.01001,0.1499-0.04004,0.31995-0.17993,0.45996c-4.76001,4.64001-11.78003,4.3999-17.69006,2.41992
	c-1.05994-0.34985-2.08997-0.77002-3.10999-1.23999c0.04004,0.06006,0.04004,0.13013-0.02002,0.18005
	c-0.65002,0.53992-1.18994,1.14001-1.92993,1.57996c-0.66016,0.38013-1.36011,0.69006-2.07007,0.95996
	c-1.54004,0.56006-3.17004,0.84009-4.80005,0.83008c-0.26001,0-0.52002-0.02002-0.79004-0.04004
	c-0.33984,1.42004-0.71997,2.82007-1.10986,4.20007c-1.20007,4.30994-2.33008,8.65002-3.27002,13.01991
	c4.21997,2.57007,6.45996,5.66016,6.61987,9.2301c0.21008,5-3.66992,10.33997-9.03992,15.42004
	c0.15002,2.90991,0.46997,5.81995,1.01001,8.72998c0.56995,3.11987,1.42004,6.46997,0.5,9.59998
	c-0.75,2.56995-2.67004,4.31995-5.17004,5.15002c-4.83997,1.60986-10.81995,0.30994-14.77002-2.79004
	c-1.47998-1.16003-2.67993-2.53003-3.6499-4.03003c-0.68005,0.46997-1.33008,0.92004-1.93005,1.34009
	c-4.69006,3.31995-6.87,6.60986-6.46997,9.76001c0.33997,2.62988,2.47998,4.52991,3.37,5.08984
	c16.07007-0.8999,31.41991-6.92993,44.62-17.59985c13.84998-11.20007,24.35999-26.65015,30.45996-44.72009
	c-1.07996-0.65002-1.80994-1.81995-1.80994-3.16003c0-2.04993,1.65991-3.70996,3.70996-3.70996
	c2.04004,0,3.69995,1.66003,3.69995,3.70996c0,2.04004-1.65991,3.70007-3.69995,3.70007c-0.16992,0-0.32007-0.03003-0.47998-0.04993
	c-6.18994,18.32983-16.87,34.0199-30.93994,45.38989c-5.98999,4.8501-12.42004,8.73999-19.16016,11.67004
	c38.32007-12.64001,66.26001-48.33997,67.29004-90.58997c-1.66992-0.36011-2.91992-1.8501-2.91992-3.62012
	c0-2.04993,1.65991-3.70996,3.69995-3.70996S204.77002,96.5667,204.77002,98.61662z M183.56641,134.31731
	c1.21582,0,2.20459-0.98877,2.20459-2.20459s-0.98877-2.20508-2.20459-2.20508s-2.20459,0.98926-2.20459,2.20508
	S182.35059,134.31731,183.56641,134.31731z M64.823,143.89287c0.48315-0.81482,0.87744-1.67908,1.17163-2.57947
	c0.97485-2.98193,0.73999-6.08569-0.59644-8.91821c-3.46545-6.86206-10.12964-10.73901-16.06177-15.22693
	c0.1875,2.93494,0.49084,5.86096,0.94934,8.76697c0.48474,3.0719,1.01575,6.22095,2.22986,9.10229
	c2.01013,4.76978,6.25671,8.18457,11.24927,9.29395c-1.90698-7.20093-5.31934-13.97632-10.14783-19.76172
	c-0.08447-0.10132,0.05615-0.24731,0.14697-0.14697c5.06433,5.5957,8.8584,12.29614,11.04553,19.48975
	C64.81372,143.90593,64.81909,143.89946,64.823,143.89287z M33.05078,129.55656c1.21582,0,2.20459-0.98877,2.20459-2.20459
	s-0.98877-2.20508-2.20459-2.20508s-2.20459,0.98926-2.20459,2.20508S31.83496,129.55656,33.05078,129.55656z M19.33447,125.14494
	c1.21582,0,2.20459-0.98877,2.20459-2.20459s-0.98877-2.20459-2.20459-2.20459s-2.20508,0.98877-2.20508,2.20459
	S18.11865,125.14494,19.33447,125.14494z M3.70996,100.81828c1.21582,0,2.20459-0.98877,2.20459-2.20459
	s-0.98877-2.20508-2.20459-2.20508s-2.20508,0.98926-2.20508,2.20508S2.49414,100.81828,3.70996,100.81828z M128.61353,148.52568
	c-5.54102,5.07117-9.80396,11.30188-12.63525,18.15515c5.24121-0.43188,9.98169-3.43494,12.57202-8.0675
	c1.54639-2.76599,2.47339-5.86609,3.3479-8.89673c0.75208-2.60693,1.3811-5.24561,1.91113-7.9054
	c-6.41748,3.62183-13.5426,6.53699-17.84888,12.81445c-2.17725,3.37378-2.71375,7.8457-0.9873,11.52844
	c3.10693-6.81775,7.75464-12.93347,13.49342-17.77539C128.5675,148.29362,128.71338,148.43437,128.61353,148.52568z
	 M112.56836,178.93388c0.229-0.15686,0.45483-0.31165,0.68945-0.47205c5.83813-3.99341,13.2124-9.04175,18.92773-14.31787
	c-0.14331-3.75269-0.02881-7.50256,0.30713-11.23462c-0.2981,0.90039-0.59387,1.802-0.92993,2.68616
	c-1.35852,3.57434-3.28345,6.81458-6.37683,9.1427c-2.76526,2.0813-6.31628,3.453-9.80884,3.48682
	C114.07751,171.67314,113.13574,175.2636,112.56836,178.93388z M133.38843,174.56242
	c-0.52588-2.83374-0.90112-5.65186-1.09521-8.5144c-5.65845,5.07703-12.60852,9.83521-18.18823,13.6521
	c-0.41919,0.28662-0.8291,0.56714-1.23047,0.84204c1.6145,2.53369,3.88135,4.60156,6.88062,5.75098
	c4.01587,1.53894,11.12012,2.12488,13.52258-2.3877C134.79663,181.05254,133.94287,177.54948,133.38843,174.56242z
	 M135.79419,141.65642c-1.41895,6.97095-2.29565,14.01404-2.14722,21.10083c4.58765-4.51074,7.77344-9.13416,7.59131-13.36426
	C141.11279,146.47783,139.27063,143.882,135.79419,141.65642z M139.47217,103.45805
	c-0.91113-1.77625-2.5835-2.40405-4.08472-0.87915c-0.95312,0.96826-1.45703,2.25598-1.89795,3.5144
	c-0.57092,1.62939-1.14819,3.25598-1.75098,4.87402c-2.37976,6.38831-5.05591,12.67102-8.07678,18.7832
	c-3.05432,6.17969-6.4906,12.16785-9.20618,18.5116c-2.94592,7.03027-5.07715,14.65137-4.63184,22.33936
	c0.13916,2.40234,0.65063,4.82446,1.55823,7.052c0.59729-3.35938,1.56165-6.63501,2.85193-9.77734
	c-0.15503-0.17346-0.27441-0.40601-0.41528-0.70386c-0.4751-1.00342-0.83887-2.06323-1.06958-3.14941
	c-0.75562-3.55786-0.05164-7.10498,1.91614-10.1543c4.80762-7.0083,12.7843-9.9873,19.81422-14.17773
	c0.047-0.02808,0.09375-0.04053,0.1405-0.05737c1.23462-5.41101,2.81238-10.72559,4.17529-16.11279
	c0.8689-3.43457,1.57068-6.92798,1.78088-10.47083C140.7561,110.01262,140.8999,106.24162,139.47217,103.45805z
	 M117.71899,132.04192c0.00098,0.00732-0.00073,0.01489,0,0.02234c0.86829,0.28394,1.73096,0.58484,2.58252,0.91724
	c1.48291-2.86292,2.94727-5.73499,4.2937-8.66406c0.87622-1.90564,1.7168-3.82703,2.52991-5.76013
	c-1.45837-0.97192-2.67419-2.2926-3.5542-3.81128c-0.1709,0.01172-0.33972,0.04053-0.51111,0.04761
	c-4.67615,0.19531-9.38672-1.41357-12.80005-4.61389c-0.54077,2.20691-2.39246,6.80627-8.68335,13.15833
	c1.64185-0.18652,3.31177-0.22803,5.02368-0.05176c3.51562,0.45105,6.64648,2.06616,8.87805,4.84814
	C116.26099,129.11028,117.56689,130.7227,117.71899,132.04192z M93.58704,130.25432
	c7.42542-1.23376,15.09875-0.80774,22.31189,1.24756c-1.64111-3.63965-5.39722-6.21497-9.29883-6.71558
	c-7.64661-0.78711-14.4812,2.71558-21.45801,5.27563c2.354,1.31372,4.75537,2.53931,7.21143,3.65259
	c2.8728,1.30225,5.8418,2.59888,8.948,3.22534c5.22998,1.05481,10.5885-0.62842,14.33411-4.34106
	c-7.05603-2.28564-14.5675-3.07324-22.02087-2.14038C93.49817,130.47307,93.4729,130.27336,93.58704,130.25432z M92.34875,88.0374
	c-0.00867-0.44214,0.03894-0.84363,0.12537-1.22327c-0.07776-0.09717-0.11792-0.21851-0.12256-0.35425
	c-1.0647-0.4939-2.1001-1.04993-3.10083-1.66223c0.39136,2.15588,0.80786,4.30701,1.24854,6.45325
	c0.76282-0.30603,1.4967-0.6748,2.19458-1.10303C92.49084,89.45476,92.36255,88.7415,92.34875,88.0374z M90.76331,92.52361
	c0.91089,4.33447,1.91895,8.64844,3.04431,12.93286c1.60498,6.11035,3.51416,12.13818,5.26819,18.2074
	c9.63391-9.17615,9.90833-14.83801,9.91089-14.94641c-0.1073-0.02783-0.21716-0.04956-0.32361-0.07935
	c-2.88208-0.80823-5.58789-2.32788-7.74805-4.40356c-1.06238-1.02075-2.09155-2.20532-2.79199-3.50952
	c-0.5376-1.00122-0.75452-1.85779-0.69238-2.83521c0.021-0.32898,0.073-0.67163,0.15576-1.03821
	c0.00793-0.03528,0.02759-0.05896,0.052-0.07385c-0.44043-0.3335-0.86206-0.69031-1.26819-1.06396
	c-1.08386-0.99707-2.03613-2.12964-2.76184-3.40576c-0.17627-0.3103-0.33862-0.63623-0.48535-0.97144
	C92.37183,91.79851,91.58228,92.1967,90.76331,92.52361z M127.61499,117.35307c0.51562-1.24878,1.01636-2.50354,1.5072-3.76233
	c-1.38293,0.48413-2.80798,0.83838-4.25916,1.03467C125.60583,115.69865,126.53625,116.62517,127.61499,117.35307z
	 M149.95947,119.30034c-1.51929-0.70374-2.97998-1.52905-4.30786-2.55212c-0.36816-0.28369-0.74353-0.59912-1.11572-0.92908
	c-0.90112-0.79895-1.77197-1.72107-2.42749-2.74475c-0.04309,0.71655-0.10327,1.43286-0.18408,2.14868
	c-0.23657,2.09668-0.62244,4.18555-1.08936,6.24585c0.15112,0.01196,0.30151,0.03223,0.45288,0.03894
	c1.51147,0.06653,3.04089-0.11536,4.49634-0.5271c0.69141-0.19568,1.36768-0.44751,2.02881-0.72791
	c0.69543-0.29504,1.4624-0.53076,2.09473-0.94409C149.92493,119.29753,149.94189,119.30327,149.95947,119.30034z
	 M186.45679,112.33904c0.23877-0.97327,0.60596-1.90857,0.54517-2.92773c-0.0918-1.53931-0.84729-2.94604-1.82153-4.10986
	c-1.49023-1.77979-3.34631-3.15283-5.32812-4.33154c-1.62085-0.96387-3.29456-1.84106-4.98669-2.67236
	c-1.29004-0.63379-2.07483-1.67834-3.17078-2.61658c-3.14795-2.69482-6.99146-4.65759-10.98254-5.82312
	c-0.55554-0.16223-1.11365-0.31006-1.67346-0.44116c-1.20825-0.28296-2.43469-0.49011-3.67175-0.59265
	c-0.80164-0.06653-1.8595,0.14539-2.49841-0.37512c-0.20679-0.16846-0.35352-0.44971-0.70459-0.78992
	c-2.20166-2.1344-5.30786-3.29309-8.21875-4.04114c-4.4104-1.13342-9.073-1.26294-13.5415-0.3623
	c-0.14478,0.02917-0.29004,0.03809-0.4353,0.04688c0.01709,2.20593,0.4939,4.52466,1.32959,6.53491
	c0.46838,1.12671,1.08618,2.18469,1.79321,3.17737c0.71289,1.0011,1.63062,1.79297,2.40039,2.73853
	c0.39917,0.49036-0.10059,1.25903-0.70288,0.91101c-1.15137-0.66479-2.04468-1.81323-2.81152-2.87927
	c-0.75659-1.05151-1.35107-2.2157-1.82837-3.41785c-0.4917-1.23853-0.80933-2.52148-0.97021-3.84351
	c-0.13672-1.12268-0.06848-2.15955,0.08105-3.23889c-1.14526-0.14465-2.29053-0.72986-3.39453-1.02954
	c-2.40588-0.65295-4.86841-1.10938-7.36548-1.16956c-2.23364-0.05371-4.44971,0.21667-6.6123,0.77417
	c-1.2251,0.31592-2.38892,0.76489-3.58679,1.16052c-0.30017,0.09912-0.4884,0.15332-0.77954,0.15601
	c-2.16492,0.02039-4.27405-0.27063-6.45593-0.05701c-2.66797,0.26123-6.06592,0.95581-7.32446,3.63086
	c-0.08582,0.1825-0.24036,0.28418-0.41431,0.32959c0.06323,2.15161,1.26465,4.46558,2.45288,5.94067
	c1.71399,2.12781,4.03442,3.71326,6.51221,4.82568c5.95215,2.672,12.82056,3.0127,19.10864,1.48328
	c0.83337-0.20276,1.15845,1.01184,0.35205,1.27698c-6.71265,2.2074-14.98145,1.20544-21.22974-2.01587
	c-0.92725-0.47803-1.82788-1.03857-2.68079-1.6665c0.01379,2.85657,2.70691,5.57507,4.78601,7.22998
	c2.08228,1.65747,4.53394,2.83008,7.13452,3.39746c5.53613,1.20801,10.70947-0.7937,15.08606-4.10376
	c0.66394-0.50208,1.39587,0.56018,0.85913,1.11353c-2.6239,2.70532-6.30676,4.23511-10.09534,4.63379
	c-1.49756,0.15771-3.00977,0.13574-4.48169-0.05908c3.21033,2.93433,7.57861,4.36011,11.92944,4.14478
	c1.86511-0.09229,3.71265-0.49438,5.47681-1.11841c0.45825-0.16211,0.90491-0.349,1.35034-0.54077
	c0.63306-1.67285,1.25403-3.35046,1.84631-5.03833c0.54358-1.54907,1.03845-3.10681,2.05078-4.42603
	c1.07275-1.39807,2.77283-2.45947,4.56799-1.80591c2.03931,0.74255,2.95142,3.1499,3.3269,5.09521
	c0.30457,1.57727,0.45154,3.17041,0.48633,4.7688c0.61963,1.0033,1.1333,2.06885,1.88,2.99536
	c0.79919,0.99194,1.75037,1.87317,2.77673,2.62573c0.37378,0.27405,0.76538,0.52124,1.15674,0.76831
	c1.68677,1.06494,3.5166,1.90063,5.40015,2.54785c3.38342,1.1626,7.22119,1.81299,10.72656,1.12744
	c0.57715-0.11279,1.14246-0.26978,1.698-0.45886c1.38428-0.47144,2.68872-1.19348,3.86279-2.21924
	c-0.24536-0.02747-0.49243-0.05164-0.73486-0.08533c-1.22485-0.17065-2.44238-0.42261-3.64551-0.74121
	c-5.76233-1.52539-11.17651-4.68677-15.26941-8.9563c-0.55579-0.57983,0.27332-1.37744,0.87-0.87012
	c4.20752,3.57629,8.86938,6.6012,14.12158,8.19116c1.20703,0.36548,2.44507,0.65527,3.71619,0.8584
	c3.34094,0.53381,6.79688,0.48047,10.10632-0.23511c2.75891-0.59668,5.23804-1.66089,7.65796-3.00085
	C186.43835,112.62663,186.42236,112.47978,186.45679,112.33904z M137.17102,57.3886
	c-4.72327,1.6637-9.14099,4.23169-13.47253,6.71448c-3.24048,1.8573-6.41553,3.82922-9.57422,5.82141
	c-4.375,2.75952-8.71887,5.57129-13.02356,8.43921c-0.05701,0.03796-0.11206,0.04761-0.16809,0.06812
	c-0.00439,0.00195-0.00659,0.00562-0.01111,0.00745c-2.72473,1.11902-5.02405,2.63696-6.23132,5.02441
	c2.49829-1.65784,6.13062-1.94678,8.89648-1.974c1.27954-0.01245,2.59839,0.23303,3.86719,0.17932
	c0.77515-0.03284,1.58887-0.52368,2.35596-0.76965c1.44836-0.46411,2.92896-0.82275,4.43433-1.04407
	c2.90283-0.42676,5.81714-0.31384,8.70178,0.19983c1.71838,0.30615,3.41028,0.74902,5.07605,1.26709
	c0.44116,0.13721,1.20032,0.55591,1.5415,0.58044c0.23193,0.01672,0.55408-0.11658,0.7821-0.15906
	c5.84412-1.08936,12.0415-0.66248,17.56824,1.59814c2.06445,0.8446,4.505,2.05725,5.9187,3.91675
	c2.23962,0.05005,4.45117,0.39697,6.60449,0.97949c1.59473,0.4314,3.15894,0.98413,4.67554,1.64771
	c3.17163,1.3877,6.19678,3.26929,8.68909,5.68652c0.70715,0.68591,1.05164,1.05103,1.90918,1.47363
	c1.13257,0.55811,2.25427,1.13892,3.35962,1.74939c2.64685,1.46179,5.20032,3.11096,7.17053,5.44568
	c1.10669,1.31116,1.96777,2.83569,2.19995,4.55615c0.04932,0.36572,0.05615,0.71655,0.03735,1.06006
	c0.58508-1.23633,0.69482-2.67542,0.38049-4.10754c-0.26404-1.203-0.78271-2.32971-1.44434-3.36426
	c-0.6283-0.98254-1.62415-1.75574-2.18591-2.74414c-0.31458-0.55359-0.7251-1.68701-1.05957-2.43787
	c-0.80383-1.80371-1.63916-3.59387-2.51978-5.36157c-1.92285-3.85962-4.20947-7.28149-6.77222-10.74268
	c-3.38623-4.57312-6.83423-9.10449-10.50562-13.45398c-3.35168-3.97058-6.95605-8.77258-11.9502-10.72388
	c-1.86816-0.72986-3.82043-1.08228-5.79004-1.14685c0.00049,0.01636,0.0022,0.03259,0.00269,0.04895
	c-0.05078-0.01624-0.09863-0.03503-0.15015-0.0509C143.32837,55.69218,140.13281,56.34538,137.17102,57.3886z M16.6499,56.42326
	c3.35449-2.14929,7.10168-3.44336,10.89355-4.59692c1.38464-0.42126,2.7771-0.8186,4.17651-1.18762
	c0.42542-0.11218,0.53638-0.18347,0.88733-0.4635c0.8512-0.67871,1.8219-1.24609,2.76404-1.78687
	c8.146-4.67603,18.38379-6.64355,27.66504-5.01892c0.83887-0.76074,1.90234-1.34363,2.89868-1.82166
	c3.27527-1.57178,6.90845-2.28174,10.50916-2.57227c4.77832-0.3855,9.55298,0.0271,14.19714,1.20935
	c1.65674,0.42175,3.2937,0.9303,4.89453,1.53101c0.4563,0.17126,0.9093,0.35059,1.3584,0.53967
	c0.11328,0.04785,0.26855,0.14722,0.39185,0.16724c0.28394,0.04639-0.00806-0.07349,0.02075-0.07446
	c2.31055-0.07959,4.62354-0.56372,6.94629-0.65796c2.11267-0.08557,4.23242-0.04663,6.33667,0.16992
	c3.80627,0.39185,7.4834,1.38489,10.97375,2.95142c1.89929,0.85229,3.59802,2.05188,5.45642,2.95459
	c0.0177,0.00854,0.0238,0.07593,0.21851,0.12402c0.23633,0.05835,0.51392,0.04517,0.75659,0.06982
	c2.10828,0.21545,4.20985,0.55859,6.27148,1.05005c3.57373,0.85193,8.06189,2.32153,10.58142,5.30396
	c0.05017-0.0022,0.10046-0.005,0.15076-0.00684c-0.1626-1.07568-0.47266-2.125-0.99561-3.12354
	c-1.46863-2.80457-4.06104-4.8241-6.66064-6.52112c-0.0238-0.0155-0.03381-0.03723-0.05493-0.05408
	c-0.03198-0.02344-0.06616-0.03296-0.09692-0.06323c-0.11255-0.11096-0.22388-0.22339-0.33813-0.33264
	c-6.0835-5.81836-12.07434-11.72668-18.25586-17.4436c-3.84253-3.55383-7.74841-7.02551-11.76514-10.38123
	c-5.78052-4.8291-11.73511-9.79321-18.80737-12.61328C80.96094,0.95793,73.18347,0.54167,66.34875,4.205
	c-3.37952,1.81104-6.44031,4.20459-9.45789,6.552c-3.12415,2.43042-6.1792,4.94897-9.18518,7.52393
	c-5.83716,5.00037-11.66272,10.11499-17.16174,15.48755c-3.73962,3.65381-6.88599,7.95215-9.92944,12.18604
	c-1.09827,1.52783-2.17725,3.06982-3.23389,4.62695c-0.2124,0.31299-0.40356,0.66968-0.64624,0.96021
	c-0.68616,0.82129-1.7998,1.35754-2.60913,2.08203c-3.49365,3.12769-6.10071,8.26611-4.01453,12.56604
	c0.01538-1.33264,0.1947-2.61536,0.84485-3.9657C12.16077,59.72185,14.35425,57.89397,16.6499,56.42326z M73.12512,77.32683
	c0.65735-3.4021,1.67615-6.95935,3.76086-9.61292c1.52625-1.94263,3.99609-3.28796,6.39868-2.06482
	c3.00562,1.53027,3.77637,5.41284,4.21106,8.4126c0.41809,2.88574,0.88025,5.76538,1.38049,8.63843
	c1.18726,0.80774,2.4248,1.53979,3.71228,2.17017c0.2948-1.34009,0.80591-2.59912,1.68201-3.71509
	c1.43311-1.82568,3.49219-2.9729,5.59338-3.88232c-1.09509-1.03979-2.10364-2.19116-2.98108-3.47998
	c-0.45374-0.6665,0.59375-1.46594,1.11353-0.85925c1.05933,1.23669,2.20679,2.38257,3.4248,3.42883
	c2.36084-1.56665,4.72815-3.12427,7.11084-4.65869c-1.85889-0.61523-3.65662-1.38196-5.3584-2.3125
	c-0.75781-0.41418-0.09106-1.50391,0.66821-1.14331c2.04028,0.96875,4.17542,1.76831,6.36719,2.3938
	c2.35425-1.50403,4.71265-3.00134,7.09131-4.4646c3.63867-2.23816,7.33557-4.36646,11.09863-6.38892
	c4.55835-2.44995,9.35168-4.64697,14.52185-5.30688c-2.57703-2.37891-6.4519-3.45605-9.7356-4.1814
	c-1.54724-0.34155-3.11353-0.60583-4.68787-0.7854c-1.14062-0.13013-1.69946-0.12793-2.72168-0.75562
	c-5.13843-3.15479-10.75415-5.15881-16.79565-5.53027c-3.38232-0.20801-6.7804,0.00452-10.1394,0.41821
	c-0.54614,0.06726-1.03931,0.16895-1.52881,0.16956c-0.25146,3.45288-1.28638,6.65955-3.1814,9.60608
	c-1.86133,2.89417-4.59253,5.92041-7.84595,7.23633c-0.66724,0.26978-0.91797-0.70581-0.44702-1.0603
	c1.40625-1.05835,2.86304-1.97339,4.13953-3.20203c1.20251-1.15735,2.27966-2.42871,3.19202-3.82751
	c1.71082-2.6228,2.96167-5.73096,3.49011-8.84229c-0.0946-0.02563-0.18762-0.03479-0.28381-0.0752
	c-0.70508-0.29639-1.42236-0.5647-2.14404-0.81738c-6.38599-2.2356-13.198-3.06274-19.91772-2.12781
	c-3.42834,0.47693-7.31909,1.42419-10.06909,3.59729c-0.10901,0.08618-0.2782,0.27466-0.42627,0.37195
	c-0.79932,0.52478-2.27002-0.05823-3.17896-0.15686c-3.32129-0.3606-6.70508-0.23706-10.00525,0.2627
	c-3.24133,0.49097-6.43787,1.33411-9.495,2.51904c-1.50293,0.58252-2.9696,1.25977-4.38428,2.03247
	c-1.33057,0.72681-2.5022,1.66211-3.79138,2.43726c-1.06653,0.64136-2.61487,0.79211-3.80164,1.13904
	c-2.46411,0.72034-4.92261,1.49866-7.30151,2.46802c-2.84082,1.15771-5.71863,2.80505-7.83496,5.04749
	c-1.29736,1.37451-2.29053,3.12817-2.4812,5.03271c-0.10669,1.06519,0.09888,2.17883,0.15259,3.25208
	c0.00952,0.19055-0.06555,0.3501-0.17969,0.47571c2.48474,2.18066,5.13513,4.08118,8.14233,5.55444
	c6.41602,3.14355,13.66333,4.30798,20.75818,3.63062c7.70203-0.73535,14.91504-3.68945,21.54517-7.56812
	c0.69312-0.4054,1.26526,0.61902,0.62097,1.0625c-3.71069,2.55505-7.74841,4.49561-12.03174,5.89111
	c-5.69299,1.85486-11.74683,2.64185-17.70044,2.08813c0.00525,0.00708,0.01245,0.00952,0.0177,0.01685
	c5.00891,7.10522,14.43738,8.13965,22.40515,6.98926c3.51172-0.50696,7.02832-1.40479,10.21265-2.99878
	c1.56592-0.78369,3.06348-1.72949,4.37622-2.89282C71.09265,79.86845,72.06616,78.57048,73.12512,77.32683z M69.76245,161.31987
	c-2.28406,6.88147-9.15295,17.79773-0.91602,23.28491c0.44409,0.29602,0.91211,0.55896,1.38989,0.80688
	c0.0415-3.99719,0.59827-7.95789,1.60596-11.79785c-0.27441-0.24683-0.47571-0.61279-0.65869-0.90808
	c-0.60864-0.98218-1.09302-2.05273-1.4519-3.15039c-1.10339-3.37537-0.75769-6.88342,0.7478-10.07397
	c3.80713-7.53857,11.31152-11.53748,17.67419-16.59546c0.46606-0.37061,1.31531-0.1853,1.2804,0.53027
	c-0.25745,5.26746-0.83545,10.60327-2.04016,15.745c-0.92297,3.93933-2.58923,7.61365-5.63342,10.36169
	c-1.34375,1.21313-2.87048,2.22949-4.52246,2.97192c-0.85596,0.38477-1.73596,0.71143-2.64294,0.9541
	c-0.42114,0.11255-1.03772,0.31982-1.59412,0.40271c-0.88147,3.82495-1.35181,7.75378-1.38037,11.70813
	c-0.00122,0.18042-0.06812,0.31458-0.15918,0.42212c5.2915,2.20337,12.03235,1.81982,16.98633-0.60303
	c7.76379-3.79712,11.78613-11.72437,13.37573-19.88892c1.7417-8.94629,1.10547-18.18481-0.60828-27.0929
	c-1.67395-0.30457-3.33069-0.79968-4.95911-1.42346c-0.06616-0.02539-0.13086-0.05505-0.19702-0.08057
	c0.20959,1.08582,0.40405,2.17554,0.56238,3.2749c1.15076,7.99426,1.25281,16.33643-0.20935,24.29932
	c-1.20557,6.56555-3.77612,13.46387-9.29504,17.58057c-0.51941,0.38745-1.10901-0.44434-0.67456-0.87427
	c2.69861-2.67017,4.86609-5.78687,6.34839-9.28394c2.84656-6.71558,3.48071-14.27588,3.50635-21.49487
	c0.01624-4.57935-0.30652-9.22705-0.99329-13.81091c-4.2561-1.69324-8.38062-3.73523-12.34155-6.0282
	c-0.58276-0.3374-0.41504-1.16846,0.1792-1.37085c4.83423-1.64624,9.56592-3.8999,14.5-5.12769
	c-2.20728-7.70605-4.64026-15.34387-6.52661-23.14307c-1.16064-4.79883-2.18701-9.62988-3.08972-14.48364
	c-0.44397-2.38647-0.85791-4.77832-1.24329-7.1748c-0.37891-2.35498-0.59766-4.7688-1.11255-7.09766
	c-0.49268-2.22815-1.95679-6.04126-4.91992-5.43555c-3.36792,0.6886-4.69604,5.49976-5.474,8.25635
	c-2.58191,9.14819-1.93884,18.74414-1.16101,28.09595C75.73364,122.54558,75.99512,142.54253,69.76245,161.31987z
	 M83.55566,152.41301c-4.82849,5.7854-8.24072,12.56079-10.14771,19.76172c4.99585-1.10974,9.23145-4.5249,11.24927-9.29395
	c1.21753-2.87781,1.74609-6.03271,2.22986-9.10229c0.45789-2.90613,0.76172-5.83203,0.94934-8.76685
	c-5.93225,4.48779-12.59644,8.36487-16.06177,15.22681c-1.33691,2.8335-1.57153,5.93555-0.59644,8.91809
	c0.29419,0.90051,0.6886,1.76477,1.17163,2.57947c0.00403,0.00684,0.00928,0.01318,0.01343,0.02002
	c2.18713-7.19385,5.9812-13.89429,11.04553-19.48999C83.49976,152.1657,83.64014,152.31181,83.55566,152.41301z M104.34961,197.6862
	c-0.88208-0.87842-1.76477-2.07166-2.25098-3.4563c-1.02002-2.90381-0.68164-7.46436,6.72363-12.70312
	c0.63306-0.448,1.31409-0.92139,2.03125-1.41577c-1.75049-3.2832-2.51904-7.10071-2.57935-10.87769
	c-0.11865-7.41577,1.92969-14.70459,4.78345-21.48779c0.01392-0.03296,0.03833-0.052,0.05493-0.0813
	c0.00964-0.03308,0.00635-0.06445,0.02063-0.0979c1.96313-4.5957,4.27954-9.02197,6.5824-13.45557
	c-0.79712-0.33276-1.60327-0.64087-2.41455-0.93396c-0.70166,0.94055-2.09302,1.85168-2.73206,2.31445
	c-1.60095,1.15955-3.4176,2.0376-5.31409,2.59363c-2.17065,0.63623-4.33862,0.76282-6.48315,0.53809
	c0.29028,1.54736,0.55933,3.09863,0.7749,4.65869c1.36572,9.88086,1.38916,20.70654-2.4541,30.07837
	c-3.01196,7.3446-9.11084,13.52319-17.09546,15.08325c-6.07031,1.18604-14.50854,0.25513-18.57874-4.96765
	c-2.54602-3.26697-2.36511-7.63562-1.22009-11.41614c1.46533-4.83765,3.69214-9.39209,5.06055-14.26978
	c0.63599-2.26709,1.18726-4.5542,1.67993-6.85315c-1.04736,1.57556-2.03418,3.19055-2.90942,4.85925
	c-6.26611,11.9502-7.59668,20.875-4.06836,27.28467c4.46252,8.10559,17.04126,12.89697,38.45337,14.64783
	C103.06116,197.72807,103.70496,197.70293,104.34961,197.6862z M203.26709,98.61369c0-1.21582-0.98877-2.20508-2.20459-2.20508
	s-2.20459,0.98926-2.20459,2.20508s0.98877,2.20459,2.20459,2.20459S203.26709,99.82951,203.26709,98.61369z M87.87927,9.18547
	c0.06323,0.04028,0.13147,0.06201,0.20471,0.06543c0.07324,0.01636,0.14648,0.01318,0.21973-0.00977
	c0.07166-0.01709,0.13403-0.05005,0.18726-0.09863c0.06006-0.03882,0.10718-0.09033,0.14185-0.15454
	c0.0498-0.08594,0.07495-0.17847,0.0752-0.27808c0.01001-0.08252,0.02014-0.16504,0.03015-0.24756
	c0.00281-0.07324-0.01257-0.14185-0.0459-0.20532c-0.02148-0.06616-0.05823-0.12329-0.11023-0.17163
	c-0.03601-0.02783-0.07202-0.05566-0.10791-0.08325c-0.06128-0.03906-0.12732-0.06006-0.19824-0.06323
	c-0.04736-0.0127-0.09448-0.0127-0.14185,0c-0.0708,0.00317-0.13696,0.02417-0.19824,0.06323
	c-0.03589,0.02759-0.0719,0.05542-0.10791,0.08325c-0.06604,0.06665-0.11169,0.14502-0.13708,0.23535
	c-0.02161,0.08105-0.04309,0.16187-0.06458,0.24268c-0.02637,0.09766-0.02637,0.19531,0,0.29297
	c0.01843,0.04395,0.03687,0.08765,0.05542,0.13159C87.73071,9.07073,87.79651,9.13664,87.87927,9.18547z M31.16919,45.06316
	C39.41699,32.69719,49.505,21.41374,61.48901,12.549c0.10156-0.0752,0.00415-0.24756-0.10059-0.17212
	c-12.20728,8.78687-22.99548,19.44775-31.17041,32.13037C29.83179,45.10649,30.7782,45.64946,31.16919,45.06316z M77.80078,5.91667
	c0.95776,0,0.95923-1.48828,0-1.48828C76.84326,4.42839,76.84155,5.91667,77.80078,5.91667z M79.35327,13.5468
	c-0.01855-0.04419-0.03735-0.08862-0.05603-0.13281c-0.02649-0.09863-0.02649-0.19727,0-0.2959
	c0.01868-0.04443,0.03748-0.08887,0.05603-0.13306c0.03345-0.0564,0.08569-0.09351,0.13452-0.13452
	c0.02185-0.05103,0.04309-0.10254,0.08325-0.14282c0.02954-0.02295,0.05933-0.0459,0.08887-0.0686
	c0.05054-0.03223,0.10498-0.04956,0.16333-0.05225c0.03906-0.0105,0.07788-0.0105,0.11694,0
	c0.05847,0.00269,0.11292,0.02002,0.16333,0.05225c0.02966,0.02271,0.05933,0.04565,0.08887,0.0686
	c0.04297,0.03979,0.07324,0.08691,0.09094,0.14136c0.02747,0.05249,0.04016,0.10889,0.03784,0.16943
	c-0.00012,0.00146-0.00037,0.00293-0.00049,0.00439c0.01672,0.03174,0.04138,0.05859,0.05017,0.09521
	c0.02319,0.07373,0.02637,0.14795,0.00977,0.22168c-0.0033,0.07422-0.02527,0.14307-0.06592,0.20703
	c-0.03503,0.06494-0.08276,0.11694-0.14343,0.15625c-0.05383,0.04932-0.11682,0.08252-0.18933,0.09961
	c-0.07397,0.02319-0.14795,0.02661-0.22192,0.01001c-0.0741-0.00342-0.14307-0.02539-0.20703-0.06616
	C79.46948,13.69719,79.40283,13.63054,79.35327,13.5468z M80.08472,12.77263c-0.00073-0.00122-0.00146-0.00244-0.00208-0.00366
	C79.94897,12.71526,79.95386,12.71819,80.08472,12.77263z M82.21802,8.50456c0.02319,0.01587,0.04626,0.03198,0.06934,0.04761
	c0.07837,0.05396,0.13525,0.09204,0.24341,0.11816c0.03882,0.00806,0.07812,0.01367,0.11768,0.01685
	c0.03931,0.01392,0.07849,0.01782,0.11792,0.01196c0.0144-0.00122,0.02905-0.00317,0.04358-0.00488
	c0.11658-0.01367,0.23303-0.02734,0.34949-0.04102c0.05762-0.00781,0.11523-0.01562,0.17285-0.02319
	c0.08472-0.02026,0.15845-0.05884,0.22119-0.11646c0.04883-0.02881,0.08777-0.06787,0.1167-0.1167
	c0.05737-0.06274,0.09619-0.13647,0.11646-0.22119c0.02588-0.11426,0.02588-0.23145,0-0.3457
	c-0.02026-0.08472-0.05908-0.15845-0.11646-0.22119c-0.0459-0.0708-0.10669-0.12671-0.1825-0.16748
	c-0.10645-0.05811-0.21289-0.11621-0.31934-0.17432c-0.06799-0.03711-0.12781-0.0686-0.21008-0.0918
	c-0.14441-0.04077-0.28394-0.03223-0.42749-0.00269c-0.03052,0.0061-0.06067,0.01367-0.09082,0.02051
	c-0.026,0.00586-0.05212,0.01123-0.07788,0.01758c-0.18042,0.04443-0.31848,0.17114-0.41797,0.32153
	c-0.0354,0.05371-0.0625,0.1123-0.08093,0.1748c-0.02734,0.10181-0.02734,0.20361,0,0.30542
	c0.02527,0.14111,0.09412,0.26221,0.19031,0.36694C82.09546,8.42522,82.16211,8.46599,82.21802,8.50456z M73.10083,11.41985
	c0.04077,0.07031,0.06128,0.14624,0.06152,0.22754c-0.00024,0.07275-0.02246,0.1394-0.05493,0.20337
	c-0.00439,0.06177-0.01611,0.10669-0.04199,0.16772c-0.00586,0.01758-0.02173,0.02954-0.02954,0.04614
	c0.00305,0.021,0.01636,0.03931,0.01648,0.06128c-0.00525,0.03882-0.0105,0.07764-0.01575,0.1167
	c-0.01355,0.05713-0.03979,0.10693-0.07861,0.14941c-0.01953,0.0332-0.0459,0.05933-0.07886,0.07886
	c-0.04248,0.03882-0.09229,0.06519-0.14941,0.07861c-0.03894,0.00537-0.07788,0.0105-0.11682,0.01587
	c-0.06042,0.0022-0.11694-0.0105-0.16931-0.03809c-0.05444-0.01758-0.10156-0.04785-0.14136-0.09082
	c-0.03088-0.0332-0.05725-0.07104-0.08447-0.10718c-0.00537-0.00708-0.01074-0.01416-0.01562-0.02173
	c-0.01953-0.03027-0.03174-0.06421-0.04565-0.09717c-0.0144-0.03418-0.03052-0.06763-0.03906-0.10376c0-0.00024,0-0.00024,0-0.00024
	c-0.00073-0.00146-0.00244-0.00269-0.00317-0.00439c-0.02124-0.04541-0.04175-0.09351-0.05908-0.14062
	c-0.00488-0.0127-0.02026-0.13403-0.02026-0.14746c-0.00098-0.02515,0.0022-0.0498,0.00952-0.07446
	c0.00024-0.04858,0.01245-0.09399,0.03687-0.13599c0.0127-0.04541,0.03589-0.08521,0.06921-0.11865
	c0.01245-0.02075,0.0271-0.03955,0.04407-0.05664c0.00244-0.00244,0.00513-0.00488,0.00781-0.00757
	c0.00537-0.00513,0.01099-0.01001,0.0166-0.01465c0.04358-0.03638,0.08887-0.07446,0.13757-0.10449
	c0.0304-0.0188,0.06458-0.03101,0.09729-0.04468c0.03101-0.01318,0.06238-0.02881,0.09546-0.03711
	c0.05249-0.01343,0.10828-0.01807,0.16187-0.02344c0.08154,0.00049,0.15735,0.021,0.22778,0.06177
	C73.00671,11.29802,73.06067,11.35198,73.10083,11.41985z M72.11084,12.06047c-0.00671-0.04053-0.01318-0.08105-0.01733-0.12158
	c0.00537,0.03979,0.01074,0.07959,0.01611,0.11938C72.10999,12.05901,72.11047,12.05974,72.11084,12.06047z" class="svg-style-0"/></svg>