<?xml version="1.0" encoding="utf-8"?>
<svg version="1.1" id="Layer_1" xmlns="http://www.w3.org/2000/svg" x="0px" y="0px" viewBox="5.733 0.385 193.33 198.44" style="enable-background:new 0 0 204.77002 199.22673;">
  <defs>
    <style> .svg-style-0 {  fill: oklch(0.24 0.02 90); }</style>
  </defs>
  <ellipse style="stroke: rgb(243, 247, 240); paint-order: stroke; fill: rgb(243, 247, 240);" cx="102.398" cy="99.605" rx="96.105" ry="98.647"/>
  <path id="path-01_00000056411176183308275430000006290811601428890287_" d="M 143.426 61.71 C 144.279 61.71 144.277 63.053 143.426 63.053 C 142.571 63.053 142.573 61.71 143.426 61.71 Z M 140.663 67.309 C 140.661 67.377 140.675 67.442 140.706 67.502 C 140.727 67.564 140.76 67.618 140.808 67.663 C 140.854 67.712 140.906 67.747 140.968 67.767 C 141.027 67.799 141.091 67.813 141.159 67.811 C 141.203 67.805 141.247 67.799 141.291 67.792 C 141.374 67.769 141.447 67.726 141.509 67.663 C 141.535 67.63 141.561 67.596 141.586 67.562 C 141.632 67.484 141.654 67.399 141.655 67.309 C 141.649 67.263 141.642 67.219 141.637 67.175 C 141.621 67.109 141.592 67.052 141.548 67.003 C 141.534 66.981 141.509 66.969 141.49 66.95 C 141.475 66.92 141.462 66.888 141.436 66.864 C 141.4 66.825 141.358 66.798 141.309 66.781 C 141.263 66.756 141.212 66.745 141.159 66.747 C 141.124 66.752 141.09 66.757 141.055 66.762 C 140.989 66.781 140.931 66.814 140.882 66.864 C 140.863 66.89 140.842 66.916 140.823 66.942 C 140.818 66.946 140.813 66.949 140.808 66.953 C 140.76 66.998 140.727 67.052 140.706 67.115 C 140.675 67.174 140.661 67.239 140.663 67.309 Z M 145.454 67.404 C 145.447 67.362 145.442 67.319 145.436 67.275 C 145.433 67.253 145.436 67.23 145.444 67.208 C 145.442 67.183 145.445 67.161 145.454 67.141 C 145.455 67.139 145.455 67.136 145.456 67.134 C 145.457 67.131 145.459 67.126 145.46 67.123 C 145.462 67.096 145.453 67.069 145.46 67.043 C 145.472 66.99 145.496 66.944 145.532 66.905 C 145.56 66.861 145.598 66.826 145.645 66.8 C 145.707 66.763 145.775 66.744 145.847 66.744 C 145.884 66.749 145.943 66.752 145.986 66.765 C 146.025 66.779 146.063 66.798 146.101 66.814 C 146.106 66.817 146.111 66.819 146.116 66.822 C 146.159 66.846 146.197 66.881 146.235 66.912 C 146.239 66.916 146.243 66.92 146.247 66.924 C 146.263 66.939 146.275 66.958 146.289 66.977 C 146.319 67.008 146.34 67.043 146.351 67.085 C 146.363 67.104 146.371 67.124 146.376 67.146 C 146.396 67.211 146.399 67.275 146.384 67.34 C 146.384 67.384 146.374 67.425 146.351 67.462 C 146.333 67.523 146.3 67.575 146.253 67.619 C 146.241 67.628 146.23 67.636 146.219 67.645 C 146.201 67.67 146.183 67.694 146.165 67.717 C 146.16 67.721 146.157 67.726 146.152 67.73 C 146.148 67.734 146.143 67.738 146.139 67.742 C 146.109 67.766 146.079 67.791 146.048 67.812 C 145.988 67.848 145.922 67.867 145.851 67.867 C 145.817 67.862 145.782 67.857 145.747 67.852 C 145.696 67.84 145.652 67.816 145.614 67.781 C 145.584 67.764 145.561 67.74 145.543 67.71 C 145.51 67.672 145.486 67.626 145.474 67.575 C 145.469 67.54 145.464 67.505 145.46 67.469 C 145.46 67.457 145.467 67.446 145.468 67.433 C 145.464 67.422 145.455 67.415 145.454 67.404 Z M 145.699 67.697 C 145.701 67.7 145.704 67.704 145.705 67.709 C 145.731 67.719 145.757 67.73 145.783 67.741 C 145.751 67.733 145.727 67.712 145.699 67.697 Z M 145.526 67.266 C 145.539 67.242 145.55 67.216 145.57 67.195 C 145.56 67.21 145.548 67.225 145.536 67.24 C 145.533 67.249 145.529 67.257 145.526 67.266 Z M 145.454 67.193 C 145.455 67.21 145.458 67.227 145.46 67.245 C 145.452 67.21 145.459 67.176 145.46 67.142 C 145.458 67.159 145.455 67.176 145.454 67.193 Z M 139.41 64.038 C 139.467 64.065 139.524 64.092 139.582 64.119 C 139.596 64.126 139.61 64.132 139.624 64.139 C 139.679 64.163 139.734 64.186 139.79 64.209 C 139.912 64.243 140.035 64.243 140.158 64.209 C 140.214 64.186 140.269 64.163 140.324 64.139 C 140.328 64.136 140.331 64.134 140.334 64.132 C 140.361 64.114 140.388 64.095 140.415 64.077 C 140.509 64.021 140.583 63.945 140.639 63.85 C 140.695 63.752 140.723 63.645 140.724 63.532 C 140.723 63.417 140.695 63.31 140.639 63.212 C 140.583 63.117 140.509 63.041 140.415 62.985 C 140.389 62.968 140.364 62.951 140.338 62.933 C 140.333 62.93 140.329 62.927 140.324 62.924 C 140.269 62.901 140.214 62.876 140.158 62.853 C 140.066 62.824 139.974 62.819 139.882 62.84 C 139.79 62.845 139.703 62.873 139.624 62.924 C 139.61 62.93 139.596 62.937 139.582 62.944 C 139.524 62.971 139.467 62.997 139.41 63.024 C 139.323 63.077 139.254 63.147 139.202 63.235 C 139.15 63.327 139.124 63.425 139.123 63.532 C 139.124 63.637 139.15 63.736 139.202 63.828 C 139.254 63.916 139.323 63.986 139.41 64.038 Z M 117.635 39.741 C 117.877 40.314 118.014 40.958 118.13 41.569 C 118.356 42.747 118.356 43.997 118.259 45.19 C 118.23 45.555 118.829 45.642 118.895 45.277 C 119.008 44.638 119.073 44.011 119.018 43.362 C 118.965 42.725 118.858 42.09 118.694 41.473 C 118.371 40.256 117.788 39.054 117.085 38.017 C 116.968 37.846 116.69 38.005 116.805 38.183 C 117.125 38.678 117.405 39.197 117.635 39.741 Z M 145.998 64.4 C 146.065 64.515 146.155 64.606 146.268 64.674 C 146.384 64.742 146.511 64.777 146.647 64.777 C 146.723 64.777 146.795 64.764 146.865 64.742 C 146.92 64.725 146.974 64.704 147.025 64.674 C 147.048 64.658 147.071 64.642 147.093 64.627 C 147.103 64.619 147.113 64.611 147.124 64.604 C 147.128 64.601 147.133 64.598 147.137 64.595 C 147.311 64.472 147.318 64.459 147.442 64.283 C 147.479 64.231 147.515 64.18 147.552 64.128 C 147.629 63.992 147.669 63.845 147.669 63.688 C 147.66 63.61 147.649 63.533 147.638 63.456 C 147.597 63.308 147.524 63.179 147.418 63.07 C 147.339 62.985 147.248 62.925 147.141 62.89 C 147.038 62.836 146.927 62.81 146.809 62.815 C 146.691 62.81 146.58 62.836 146.478 62.89 C 146.371 62.925 146.279 62.985 146.201 63.07 C 146.199 63.072 146.199 63.074 146.198 63.076 C 146.093 63.183 146.02 63.309 145.98 63.456 C 145.961 63.513 145.943 63.572 145.924 63.631 C 145.883 63.762 145.891 63.885 145.896 64.015 C 145.896 64.154 145.931 64.282 145.998 64.4 Z M 95.92 21.741 C 96.772 21.741 96.773 20.397 95.92 20.397 C 95.067 20.397 95.067 21.741 95.92 21.741 Z M 134.846 67.667 C 135.927 67.667 135.928 65.964 134.846 65.964 C 133.766 65.964 133.763 67.667 134.846 67.667 Z M 136.118 63.718 C 136.162 63.767 136.215 63.801 136.276 63.821 C 136.334 63.853 136.397 63.866 136.464 63.865 C 136.508 63.858 136.551 63.852 136.595 63.847 C 136.678 63.823 136.75 63.781 136.811 63.718 C 136.837 63.685 136.863 63.652 136.888 63.618 C 136.932 63.541 136.954 63.457 136.954 63.367 C 136.949 63.312 136.945 63.258 136.939 63.203 C 136.942 63.136 136.928 63.075 136.898 63.017 C 136.879 62.957 136.847 62.906 136.801 62.863 C 136.757 62.816 136.706 62.782 136.647 62.763 C 136.591 62.733 136.53 62.719 136.464 62.722 C 136.422 62.727 136.381 62.733 136.339 62.739 C 136.259 62.761 136.188 62.803 136.13 62.863 C 136.105 62.895 136.08 62.928 136.055 62.96 C 136.012 63.035 135.991 63.116 135.99 63.203 C 135.985 63.258 135.98 63.312 135.975 63.367 C 135.972 63.436 135.986 63.499 136.017 63.559 C 136.036 63.62 136.07 63.673 136.118 63.718 Z M 123.702 96.327 C 117.733 94.814 111.956 91.314 108.62 85.95 C 108.534 85.812 108.322 85.937 108.404 86.079 C 111.675 91.741 116.927 96.202 123.419 97.367 C 124.082 97.487 124.377 96.498 123.702 96.327 Z M 147.714 90.014 C 147.757 89.879 147.542 89.783 147.485 89.916 C 147.077 90.873 146.418 91.697 145.778 92.505 C 145.141 93.306 144.413 94.051 143.621 94.692 C 142.847 95.318 141.984 95.84 141.084 96.257 C 140.142 96.694 139.147 96.939 138.184 97.311 C 137.592 97.54 137.628 98.507 138.342 98.495 C 139.476 98.477 140.574 98.039 141.581 97.527 C 142.575 97.022 143.501 96.355 144.331 95.606 C 145.143 94.873 145.855 94.041 146.445 93.115 C 147.055 92.156 147.374 91.09 147.714 90.014 Z M 165.501 98.88 C 162.673 100.91 159.466 101.831 156.177 101.997 C 152.463 102.184 148.644 101.404 145.139 100.114 C 144.496 99.878 144.214 100.924 144.857 101.155 C 148.527 102.478 152.49 103.14 156.307 102.769 C 159.637 102.447 162.857 101.341 165.671 99.172 C 165.837 99.043 165.679 98.752 165.501 98.88 Z M 91.048 23.516 C 92.128 23.516 92.13 21.814 91.048 21.814 C 89.968 21.814 89.966 23.516 91.048 23.516 Z M 149.252 68.472 C 150.105 68.472 150.106 67.129 149.252 67.129 C 148.401 67.129 148.399 68.472 149.252 68.472 Z M 114.302 74.047 C 113.979 74.365 113.685 74.712 113.423 75.084 C 113.151 75.47 112.876 75.826 112.662 76.253 C 112.459 76.658 112.289 77.084 112.158 77.519 C 112.015 77.994 111.973 78.463 111.978 78.959 C 111.981 79.394 112.573 79.366 112.624 78.959 C 112.676 78.542 112.763 78.124 112.842 77.71 C 112.921 77.289 113.036 76.877 113.185 76.477 C 113.327 76.099 113.481 75.677 113.699 75.337 C 113.942 74.957 114.221 74.606 114.531 74.279 C 114.675 74.126 114.451 73.9 114.302 74.047 Z M 158.03 86.11 C 158.14 86.527 158.75 86.35 158.664 85.933 C 158.18 83.599 157.356 81.362 156.244 79.261 C 155.134 77.16 153.736 75.304 152.216 73.496 C 152.137 73.402 152.006 73.538 152.082 73.631 C 155.005 77.182 156.864 81.677 158.03 86.11 Z M 167.889 93.783 C 168.103 94.296 168.991 93.925 168.785 93.401 C 165.175 84.225 159.586 76.141 152.919 69 C 152.84 68.916 152.717 69.042 152.793 69.128 C 159.265 76.315 164.154 84.856 167.889 93.783 Z M 131.608 64.338 C 130.757 64.338 130.755 65.681 131.608 65.681 C 132.461 65.681 132.462 64.338 131.608 64.338 Z M 118.559 72.137 C 118.117 72.518 117.703 72.93 117.323 73.374 C 116.936 73.829 116.535 74.244 116.195 74.741 C 115.865 75.222 115.571 75.729 115.318 76.258 C 115.064 76.788 114.728 77.406 114.789 78.013 C 114.828 78.407 115.288 78.551 115.518 78.214 C 115.831 77.753 115.901 77.154 116.077 76.632 C 116.26 76.093 116.486 75.572 116.75 75.07 C 117.008 74.579 117.278 74.047 117.627 73.618 C 117.988 73.176 118.381 72.766 118.803 72.385 C 118.969 72.234 118.726 71.994 118.559 72.137 Z M 112.771 36.45 C 113.146 37.137 113.408 37.913 113.648 38.659 C 113.883 39.389 114.065 40.138 114.193 40.895 C 114.323 41.669 114.293 42.492 114.533 43.242 C 114.644 43.587 115.21 43.65 115.287 43.242 C 115.441 42.435 115.228 41.597 115.036 40.813 C 114.839 40.014 114.58 39.234 114.265 38.476 C 113.642 36.975 112.756 35.527 111.756 34.254 C 111.635 34.101 111.366 34.308 111.486 34.466 C 111.962 35.095 112.393 35.756 112.771 36.45 Z M 65.693 27.173 C 60.614 31.298 56.402 36.263 53.821 42.374 C 53.658 42.759 54.205 43.103 54.388 42.711 C 57.101 36.913 60.889 31.381 65.826 27.308 C 65.92 27.23 65.786 27.098 65.693 27.173 Z M 68.346 65.458 C 58.749 67.004 48.002 65.7 41.009 58.189 C 40.86 58.029 40.63 58.267 40.773 58.428 C 47.795 66.356 58.673 68.054 68.629 66.499 C 69.301 66.393 69.017 65.35 68.346 65.458 Z M 98.636 67.071 C 107.704 67.118 116.06 62.68 122.002 55.887 C 122.108 55.766 121.935 55.587 121.825 55.707 C 115.899 62.166 107.226 65.597 98.636 65.992 C 97.955 66.023 97.947 67.068 98.636 67.071 Z M 71.191 20.842 C 72.043 20.842 72.045 19.499 71.191 19.499 C 70.339 19.499 70.337 20.842 71.191 20.842 Z M 74.847 15.699 C 74.881 15.783 74.905 15.871 74.957 15.944 C 74.969 15.961 74.981 15.978 74.993 15.995 C 75.018 16.029 75.043 16.064 75.068 16.098 C 75.107 16.15 75.146 16.201 75.185 16.253 C 75.253 16.327 75.334 16.379 75.426 16.41 C 75.485 16.445 75.548 16.462 75.616 16.462 C 75.715 16.485 75.815 16.48 75.916 16.449 C 75.975 16.423 76.035 16.397 76.095 16.372 C 76.145 16.332 76.196 16.293 76.247 16.253 C 76.32 16.183 76.371 16.102 76.402 16.007 C 76.449 15.917 76.47 15.819 76.467 15.714 C 76.47 15.673 76.473 15.633 76.476 15.592 C 76.477 15.569 76.479 15.548 76.481 15.526 C 76.488 15.433 76.466 15.342 76.451 15.25 C 76.436 15.164 76.423 15.078 76.409 14.993 C 76.383 14.879 76.331 14.78 76.255 14.696 C 76.194 14.601 76.114 14.526 76.014 14.471 C 75.915 14.407 75.808 14.372 75.694 14.367 C 75.579 14.341 75.465 14.346 75.351 14.383 C 75.282 14.412 75.214 14.442 75.145 14.471 C 75.016 14.548 74.913 14.653 74.836 14.784 C 74.808 14.854 74.778 14.923 74.75 14.993 C 74.709 15.147 74.709 15.301 74.75 15.457 C 74.782 15.537 74.815 15.618 74.847 15.699 Z M 78.553 63.497 C 77.331 62.811 76.085 62.2 74.94 61.379 C 73.766 60.538 72.702 59.553 71.768 58.445 C 70.853 57.36 70.067 56.146 69.424 54.877 C 68.759 53.565 68.13 52.207 67.832 50.756 C 67.799 50.592 67.571 50.666 67.591 50.824 C 67.797 52.366 68.039 53.874 68.637 55.317 C 69.216 56.714 69.976 58.001 70.892 59.197 C 72.678 61.527 75.221 63.838 78.095 64.599 C 78.737 64.769 79.154 63.835 78.553 63.497 Z M 193.507 98.705 C 193.507 100.321 192.359 101.675 190.847 101.982 C 189.725 149.142 152.556 187.4 106.282 189.44 L 106.291 189.531 L 106.265 189.531 C 106.176 189.531 106.06 189.504 105.935 189.458 C 104.761 189.504 103.586 189.531 102.403 189.531 C 54.341 189.531 15.107 150.46 13.95 101.982 C 12.437 101.675 11.289 100.321 11.289 98.705 C 11.289 96.855 12.775 95.356 14.59 95.356 C 16.406 95.356 17.883 96.855 17.883 98.705 C 17.883 100.303 16.771 101.648 15.285 101.973 C 16.201 140.015 40.931 172.171 74.897 183.663 C 52.508 173.751 34.915 152.003 28.223 123.982 C 26.532 123.838 25.198 122.411 25.198 120.66 C 25.198 118.818 26.675 117.32 28.49 117.32 C 30.314 117.32 31.792 118.818 31.792 120.66 C 31.792 122.132 30.848 123.359 29.558 123.811 C 31.498 131.899 34.372 139.446 38.003 146.334 C 36.454 138.887 38.127 131.322 39.213 127.611 C 38.145 127.061 37.407 125.941 37.407 124.65 C 37.407 122.8 38.884 121.301 40.699 121.301 C 42.514 121.301 44.001 122.8 44.001 124.65 C 44.001 126.492 42.514 127.99 40.699 127.99 C 40.637 127.99 40.583 127.972 40.521 127.972 C 39.115 132.892 36.57 145.034 42.523 153.845 L 42.461 153.89 C 49.936 165.22 59.689 174.238 70.83 180.187 C 69.219 178.806 67.947 177.28 67.039 175.61 C 63.871 169.779 64.717 161.961 69.611 151.76 C 69.566 148.266 69.148 144.8 68.383 141.423 C 68.249 141.405 68.107 141.378 67.947 141.351 C 64.788 140.737 61.834 139.022 59.653 136.63 C 57.117 133.849 55.96 130.31 55.257 126.663 C 54.448 122.493 53.976 118.259 53.771 114.016 C 53.736 113.366 54.492 113.203 54.91 113.537 C 60.57 118.096 67.253 121.707 70.634 128.514 C 72.12 131.71 72.298 135.23 70.972 138.525 C 70.643 139.338 70.243 140.132 69.753 140.864 C 69.638 141.026 69.531 141.143 69.415 141.243 C 70.118 143.933 70.572 146.704 70.759 149.494 C 71.996 147.12 73.446 144.854 75.048 142.696 C 76.169 136.44 76.748 130.085 76.828 123.729 C 76.952 114.187 75.804 104.763 75.386 95.248 C 74.924 95.203 74.461 95.13 73.998 95.04 C 72.094 94.679 70.278 93.966 68.614 92.973 C 67.813 92.494 67.057 91.953 66.354 91.348 C 65.571 90.68 65.019 89.867 64.361 89.091 C 64.316 89.046 64.316 88.992 64.334 88.938 C 64.37 88.865 64.468 88.82 64.548 88.901 C 65.802 90.165 67.555 91.258 69.122 92.079 C 70.652 92.874 72.316 93.451 73.998 93.758 C 74.443 93.848 74.888 93.903 75.342 93.948 C 75.217 89.994 75.333 86.031 75.92 82.122 C 74.425 84.009 72.254 85.471 70.216 86.5 C 68.285 87.475 66.247 88.179 64.156 88.685 C 62.857 88.992 61.549 89.235 60.232 89.407 C 52.712 90.418 44.187 89.136 39.578 82.347 C 39.391 82.068 39.489 81.815 39.694 81.661 C 38.448 81.517 37.202 81.318 35.983 81.029 C 29.869 79.594 23.712 76.398 19.672 71.415 C 19.556 71.28 19.565 71.117 19.627 71 C 19.289 70.485 18.995 69.953 18.773 69.366 C 16.904 64.482 20.125 59.3 23.827 56.357 C 24.317 55.969 24.815 55.753 25.171 55.301 C 25.518 54.868 25.803 54.362 26.105 53.911 C 27.244 52.232 28.392 50.58 29.585 48.946 C 32.575 44.82 35.716 40.893 39.427 37.409 C 44.855 32.308 50.328 27.253 56.032 22.459 C 58.817 20.121 61.656 17.828 64.583 15.653 C 67.244 13.666 70.047 11.807 73.197 10.733 C 79.417 8.602 86.269 9.929 92.071 12.701 C 98.283 15.671 103.533 20.32 108.756 24.752 C 112.414 27.849 115.911 31.126 119.39 34.421 C 124.418 39.169 129.375 43.999 134.269 48.892 C 136.734 50.535 139.19 52.503 140.587 55.202 C 141.156 56.312 141.495 57.495 141.655 58.705 C 145.455 58.831 149.014 60.113 151.986 62.695 C 155.848 66.062 159.078 70.377 162.22 74.421 C 165.263 78.339 168.431 82.302 171.109 86.482 C 173.04 89.479 174.553 92.765 176.004 96.015 C 176.422 96.954 176.751 98.046 177.267 98.931 C 177.525 99.373 177.837 99.581 178.202 100.032 C 178.851 100.818 179.412 101.657 179.857 102.578 C 181.227 105.467 181.218 108.771 179.074 111.055 C 179.074 111.145 179.047 111.226 178.967 111.299 C 174.865 114.91 168.947 116.291 163.537 115.957 C 163.546 116.092 163.501 116.246 163.376 116.372 C 159.141 120.561 152.894 120.344 147.635 118.557 C 146.691 118.241 145.775 117.862 144.867 117.437 C 144.903 117.491 144.903 117.555 144.849 117.6 C 144.271 118.087 143.79 118.629 143.132 119.026 C 142.545 119.369 141.922 119.649 141.29 119.893 C 139.92 120.398 138.469 120.651 137.019 120.642 C 136.787 120.642 136.556 120.624 136.316 120.606 C 136.013 121.888 135.675 123.152 135.328 124.397 C 134.26 128.288 133.254 132.206 132.418 136.151 C 136.173 138.471 138.166 141.261 138.309 144.484 C 138.496 148.997 135.043 153.818 130.264 158.404 C 130.398 161.031 130.683 163.658 131.163 166.285 C 131.67 169.102 132.427 172.126 131.608 174.951 C 130.941 177.271 129.232 178.851 127.008 179.6 C 122.701 181.054 117.379 179.88 113.864 177.082 C 112.547 176.035 111.479 174.798 110.616 173.444 C 110.011 173.868 109.433 174.274 108.899 174.653 C 104.725 177.651 102.785 180.621 103.141 183.464 C 103.444 185.838 105.348 187.554 106.14 188.059 C 120.44 187.247 134.1 181.803 145.846 172.171 C 158.171 162.06 167.523 148.113 172.951 131.8 C 171.99 131.213 171.341 130.157 171.341 128.947 C 171.341 127.097 172.818 125.598 174.642 125.598 C 176.458 125.598 177.935 127.097 177.935 128.947 C 177.935 130.789 176.458 132.287 174.642 132.287 C 174.491 132.287 174.357 132.26 174.215 132.242 C 168.707 148.79 159.203 162.954 146.683 173.218 C 141.352 177.596 135.63 181.108 129.633 183.753 C 163.732 172.342 188.595 140.114 189.512 101.973 C 188.026 101.648 186.913 100.303 186.913 98.705 C 186.913 96.855 188.391 95.356 190.206 95.356 C 192.021 95.356 193.507 96.855 193.507 98.705 Z M 174.639 130.933 C 175.721 130.933 176.601 130.041 176.601 128.944 C 176.601 127.846 175.721 126.953 174.639 126.953 C 173.557 126.953 172.677 127.846 172.677 128.944 C 172.677 130.041 173.557 130.933 174.639 130.933 Z M 68.973 139.578 C 69.403 138.842 69.753 138.062 70.016 137.249 C 70.883 134.557 70.674 131.756 69.485 129.198 C 66.401 123.004 60.471 119.504 55.192 115.452 C 55.359 118.102 55.628 120.743 56.037 123.367 C 56.469 126.14 56.941 128.983 58.021 131.584 C 59.81 135.889 63.588 138.972 68.031 139.973 C 66.334 133.474 63.298 127.357 59.001 122.134 C 58.926 122.042 59.051 121.91 59.132 122.002 C 63.638 127.052 67.014 133.102 68.961 139.596 C 68.965 139.59 68.969 139.583 68.973 139.578 Z M 40.7 126.636 C 41.782 126.636 42.661 125.743 42.661 124.646 C 42.661 123.548 41.782 122.655 40.7 122.655 C 39.618 122.655 38.738 123.548 38.738 124.646 C 38.738 125.743 39.618 126.636 40.7 126.636 Z M 28.494 122.653 C 29.576 122.653 30.456 121.761 30.456 120.663 C 30.456 119.566 29.576 118.673 28.494 118.673 C 27.413 118.673 26.532 119.566 26.532 120.663 C 26.532 121.761 27.413 122.653 28.494 122.653 Z M 14.59 100.692 C 15.672 100.692 16.553 99.8 16.553 98.703 C 16.553 97.605 15.672 96.712 14.59 96.712 C 13.508 96.712 12.628 97.605 12.628 98.703 C 12.628 99.8 13.508 100.692 14.59 100.692 Z M 125.739 143.76 C 120.808 148.338 117.014 153.963 114.494 160.15 C 119.158 159.76 123.377 157.049 125.682 152.867 C 127.058 150.37 127.883 147.571 128.661 144.836 C 129.33 142.482 129.89 140.1 130.361 137.699 C 124.651 140.968 118.311 143.6 114.478 149.267 C 112.541 152.312 112.064 156.349 113.6 159.674 C 116.365 153.519 120.501 147.999 125.608 143.628 C 125.698 143.551 125.827 143.677 125.739 143.76 Z M 111.46 171.211 C 111.664 171.07 111.865 170.93 112.074 170.785 C 117.269 167.18 123.831 162.622 128.917 157.86 C 128.789 154.472 128.891 151.086 129.19 147.717 C 128.925 148.531 128.662 149.344 128.363 150.142 C 127.153 153.369 125.44 156.294 122.688 158.396 C 120.228 160.274 117.068 161.513 113.959 161.544 C 112.803 164.656 111.965 167.898 111.46 171.211 Z M 129.987 167.264 C 129.52 164.707 129.185 162.163 129.012 159.578 C 123.978 164.162 117.793 168.457 112.827 171.903 C 112.455 172.162 112.09 172.415 111.733 172.663 C 113.169 174.95 115.187 176.817 117.855 177.855 C 121.429 179.244 127.751 179.773 129.889 175.699 C 131.241 173.124 130.481 169.961 129.987 167.264 Z M 132.128 137.559 C 130.865 143.852 130.086 150.21 130.217 156.607 C 134.3 152.536 137.134 148.362 136.972 144.543 C 136.861 141.912 135.222 139.568 132.128 137.559 Z M 135.401 103.075 C 134.59 101.472 133.102 100.905 131.766 102.282 C 130.918 103.156 130.469 104.319 130.078 105.454 C 129.569 106.926 129.055 108.394 128.519 109.854 C 126.402 115.622 124.02 121.293 121.332 126.811 C 118.613 132.389 115.556 137.795 113.14 143.522 C 110.518 149.868 108.621 156.748 109.018 163.689 C 109.142 165.858 109.596 168.044 110.404 170.055 C 110.936 167.022 111.794 164.065 112.942 161.229 C 112.804 161.072 112.698 160.862 112.573 160.593 C 112.15 159.688 111.826 158.731 111.621 157.75 C 110.948 154.538 111.575 151.336 113.326 148.584 C 117.604 142.257 124.702 139.567 130.958 135.785 C 130.999 135.759 131.041 135.748 131.083 135.732 C 132.182 130.848 133.585 126.05 134.798 121.187 C 135.572 118.086 136.196 114.933 136.383 111.735 C 136.543 108.993 136.671 105.589 135.401 103.075 Z M 116.043 128.88 C 116.044 128.886 116.043 128.893 116.043 128.899 C 116.816 129.156 117.584 129.428 118.342 129.727 C 119.661 127.144 120.964 124.551 122.162 121.906 C 122.942 120.186 123.69 118.451 124.414 116.706 C 123.116 115.829 122.034 114.637 121.251 113.266 C 121.099 113.277 120.948 113.303 120.796 113.309 C 116.635 113.485 112.443 112.033 109.406 109.144 C 108.925 111.136 107.276 115.288 101.678 121.022 C 103.139 120.854 104.626 120.816 106.149 120.975 C 109.278 121.382 112.064 122.84 114.049 125.352 C 114.746 126.233 115.908 127.689 116.043 128.88 Z M 94.569 127.265 C 101.176 126.152 108.005 126.537 114.424 128.392 C 112.964 125.106 109.621 122.782 106.149 122.329 C 99.344 121.619 93.263 124.781 87.054 127.092 C 89.149 128.278 91.286 129.384 93.472 130.39 C 96.028 131.565 98.67 132.735 101.434 133.301 C 106.088 134.254 110.856 132.733 114.19 129.382 C 107.911 127.319 101.226 126.608 94.594 127.45 C 94.49 127.463 94.468 127.283 94.569 127.265 Z M 93.467 89.154 C 93.459 88.755 93.502 88.393 93.579 88.05 C 93.509 87.963 93.474 87.853 93.47 87.731 C 92.522 87.285 91.601 86.783 90.711 86.23 C 91.059 88.177 91.43 90.118 91.821 92.056 C 92.5 91.779 93.153 91.446 93.774 91.06 C 93.594 90.434 93.48 89.79 93.467 89.154 Z M 92.056 93.205 C 92.867 97.117 93.764 101.012 94.766 104.879 C 96.194 110.396 97.893 115.838 99.454 121.316 C 108.027 113.033 108.27 107.921 108.273 107.823 C 108.177 107.799 108.08 107.779 107.985 107.752 C 105.42 107.022 103.012 105.65 101.09 103.777 C 100.145 102.855 99.228 101.785 98.606 100.608 C 98.127 99.705 97.935 98.931 97.99 98.049 C 98.008 97.752 98.055 97.442 98.128 97.112 C 98.135 97.079 98.153 97.059 98.174 97.045 C 97.782 96.744 97.407 96.421 97.046 96.085 C 96.081 95.185 95.234 94.162 94.588 93.01 C 94.431 92.73 94.287 92.436 94.156 92.133 C 93.488 92.55 92.785 92.91 92.056 93.205 Z M 124.85 115.619 C 125.309 114.492 125.754 113.36 126.191 112.223 C 124.96 112.66 123.692 112.98 122.401 113.156 C 123.062 114.126 123.889 114.962 124.85 115.619 Z M 144.733 117.377 C 143.381 116.742 142.081 115.996 140.9 115.073 C 140.572 114.818 140.238 114.532 139.907 114.234 C 139.105 113.513 138.33 112.681 137.746 111.756 C 137.708 112.404 137.655 113.05 137.583 113.696 C 137.373 115.589 137.029 117.475 136.614 119.335 C 136.748 119.346 136.882 119.364 137.017 119.37 C 138.361 119.43 139.723 119.265 141.018 118.894 C 141.633 118.717 142.235 118.49 142.823 118.237 C 143.442 117.971 144.124 117.758 144.687 117.385 C 144.703 117.375 144.718 117.38 144.733 117.377 Z M 177.211 111.093 C 177.424 110.214 177.751 109.369 177.696 108.45 C 177.614 107.06 176.943 105.79 176.075 104.739 C 174.749 103.133 173.097 101.894 171.334 100.829 C 169.891 99.959 168.402 99.167 166.897 98.417 C 165.749 97.845 165.05 96.902 164.075 96.055 C 161.274 93.622 157.853 91.85 154.302 90.798 C 153.808 90.652 153.311 90.518 152.813 90.4 C 151.738 90.145 150.646 89.958 149.545 89.865 C 148.832 89.805 147.891 89.996 147.322 89.526 C 147.138 89.374 147.007 89.12 146.695 88.813 C 144.735 86.887 141.972 85.84 139.381 85.165 C 135.457 84.141 131.307 84.025 127.331 84.838 C 127.202 84.864 127.073 84.872 126.944 84.88 C 126.959 86.871 127.383 88.965 128.127 90.779 C 128.544 91.797 129.093 92.752 129.723 93.648 C 130.357 94.552 131.174 95.267 131.859 96.12 C 132.214 96.563 131.769 97.256 131.234 96.942 C 130.208 96.342 129.414 95.306 128.731 94.343 C 128.058 93.394 127.529 92.343 127.105 91.258 C 126.667 90.14 126.385 88.982 126.241 87.788 C 126.119 86.775 126.18 85.838 126.313 84.864 C 125.295 84.733 124.275 84.205 123.292 83.935 C 121.151 83.345 118.96 82.933 116.738 82.879 C 114.75 82.83 112.779 83.074 110.854 83.578 C 109.764 83.863 108.729 84.269 107.663 84.625 C 107.396 84.714 107.228 84.764 106.969 84.766 C 105.042 84.785 103.165 84.522 101.224 84.714 C 98.849 84.951 95.826 85.578 94.706 87.992 C 94.63 88.158 94.492 88.249 94.337 88.29 C 94.394 90.232 95.463 92.321 96.52 93.653 C 98.045 95.574 100.11 97.005 102.315 98.009 C 107.612 100.421 113.724 100.729 119.319 99.348 C 120.061 99.166 120.35 100.262 119.632 100.501 C 113.659 102.494 106.301 101.59 100.741 98.682 C 99.915 98.249 99.115 97.744 98.356 97.177 C 98.368 99.756 100.764 102.21 102.614 103.704 C 104.467 105.2 106.649 106.259 108.963 106.77 C 113.889 107.861 118.493 106.055 122.387 103.066 C 122.978 102.613 123.63 103.572 123.152 104.071 C 120.818 106.514 117.54 107.894 114.168 108.255 C 112.836 108.397 111.49 108.377 110.18 108.201 C 113.037 110.85 116.924 112.137 120.796 111.943 C 122.456 111.859 124.099 111.496 125.67 110.933 C 126.078 110.787 126.475 110.618 126.871 110.446 C 127.435 108.935 127.987 107.42 128.514 105.897 C 128.998 104.498 129.439 103.092 130.339 101.901 C 131.294 100.639 132.807 99.681 134.404 100.271 C 136.219 100.941 137.03 103.114 137.365 104.87 C 137.636 106.295 137.767 107.733 137.797 109.175 C 138.349 110.082 138.806 111.043 139.47 111.88 C 140.181 112.775 141.028 113.571 141.941 114.25 C 142.274 114.497 142.622 114.721 142.971 114.944 C 144.472 115.905 146.1 116.659 147.776 117.244 C 150.787 118.293 154.202 118.881 157.321 118.261 C 157.835 118.159 158.338 118.018 158.832 117.847 C 160.064 117.422 161.225 116.77 162.269 115.844 C 162.051 115.819 161.832 115.797 161.615 115.767 C 160.526 115.613 159.442 115.385 158.372 115.097 C 153.244 113.721 148.426 110.867 144.784 107.012 C 144.29 106.489 145.027 105.769 145.558 106.227 C 149.302 109.455 153.451 112.186 158.124 113.621 C 159.199 113.952 160.3 114.213 161.431 114.396 C 164.404 114.878 167.48 114.83 170.425 114.184 C 172.879 113.646 175.086 112.684 177.24 111.476 C 177.194 111.353 177.18 111.22 177.211 111.093 Z M 133.353 61.487 C 129.15 62.988 125.219 65.306 121.364 67.548 C 118.481 69.224 115.655 71.004 112.844 72.803 C 108.951 75.294 105.086 77.833 101.256 80.422 C 101.205 80.456 101.156 80.464 101.106 80.483 C 101.102 80.485 101.1 80.488 101.096 80.49 C 98.671 81.5 96.625 82.87 95.551 85.026 C 97.774 83.529 101.006 83.268 103.468 83.244 C 104.606 83.232 105.78 83.454 106.909 83.406 C 107.599 83.376 108.323 82.932 109.005 82.71 C 110.294 82.292 111.612 81.968 112.951 81.768 C 115.534 81.383 118.128 81.484 120.695 81.948 C 122.224 82.225 123.729 82.625 125.212 83.092 C 125.604 83.216 126.28 83.594 126.583 83.617 C 126.79 83.631 127.077 83.511 127.28 83.473 C 132.48 82.489 137.995 82.875 142.913 84.916 C 144.75 85.678 146.922 86.773 148.18 88.451 C 150.173 88.497 152.141 88.809 154.057 89.336 C 155.476 89.725 156.868 90.224 158.218 90.823 C 161.04 92.075 163.732 93.774 165.95 95.956 C 166.579 96.576 166.885 96.905 167.649 97.287 C 168.656 97.791 169.654 98.315 170.638 98.866 C 172.993 100.186 175.266 101.674 177.019 103.782 C 178.004 104.966 178.77 106.343 178.977 107.895 C 179.02 108.226 179.027 108.543 179.01 108.852 C 179.53 107.736 179.628 106.437 179.349 105.145 C 179.114 104.059 178.652 103.041 178.063 102.107 C 177.504 101.22 176.618 100.523 176.118 99.63 C 175.838 99.13 175.472 98.107 175.175 97.429 C 174.46 95.801 173.717 94.184 172.933 92.589 C 171.222 89.105 169.187 86.015 166.907 82.891 C 163.893 78.763 160.825 74.672 157.558 70.745 C 154.576 67.161 151.368 62.826 146.924 61.064 C 145.261 60.405 143.524 60.088 141.771 60.029 C 141.772 60.044 141.773 60.059 141.774 60.073 C 141.729 60.059 141.686 60.042 141.641 60.027 C 138.832 59.955 135.989 60.544 133.353 61.487 Z M 26.105 60.615 C 29.09 58.675 32.425 57.507 35.799 56.465 C 37.031 56.085 38.271 55.726 39.516 55.393 C 39.894 55.292 39.993 55.227 40.305 54.974 C 41.062 54.362 41.926 53.85 42.765 53.361 C 50.013 49.14 59.124 47.364 67.383 48.83 C 68.129 48.144 69.076 47.618 69.962 47.186 C 72.877 45.767 76.111 45.126 79.314 44.864 C 83.567 44.516 87.815 44.889 91.948 45.956 C 93.422 46.337 94.879 46.795 96.303 47.338 C 96.709 47.492 97.112 47.654 97.512 47.826 C 97.613 47.868 97.751 47.958 97.861 47.976 C 98.113 48.018 97.854 47.909 97.879 47.909 C 99.935 47.837 101.993 47.4 104.06 47.315 C 105.941 47.238 107.827 47.273 109.7 47.468 C 113.086 47.822 116.358 48.718 119.465 50.133 C 121.155 50.902 122.667 51.985 124.32 52.8 C 124.336 52.808 124.341 52.868 124.515 52.912 C 124.725 52.965 124.972 52.952 125.188 52.975 C 127.064 53.17 128.934 53.479 130.769 53.923 C 133.948 54.692 137.942 56.019 140.185 58.711 C 140.229 58.709 140.274 58.706 140.319 58.705 C 140.174 57.734 139.898 56.786 139.433 55.885 C 138.126 53.353 135.819 51.53 133.506 49.998 C 133.485 49.984 133.476 49.964 133.457 49.95 C 133.429 49.928 133.398 49.92 133.371 49.892 C 133.27 49.792 133.172 49.691 133.07 49.592 C 127.656 44.339 122.325 39.006 116.825 33.845 C 113.405 30.636 109.929 27.503 106.355 24.473 C 101.211 20.114 95.912 15.633 89.619 13.087 C 83.334 10.544 76.412 10.168 70.331 13.475 C 67.323 15.11 64.599 17.271 61.915 19.39 C 59.135 21.584 56.416 23.858 53.741 26.182 C 48.547 30.696 43.363 35.313 38.469 40.163 C 35.141 43.462 32.342 47.343 29.634 51.165 C 28.656 52.543 27.696 53.935 26.756 55.341 C 26.566 55.623 26.396 55.946 26.18 56.208 C 25.57 56.95 24.579 57.433 23.858 58.088 C 20.75 60.911 18.43 65.55 20.286 69.432 C 20.3 68.229 20.459 67.07 21.038 65.852 C 22.111 63.593 24.062 61.943 26.105 60.615 Z M 76.361 79.486 C 76.945 76.415 77.852 73.203 79.707 70.808 C 81.065 69.054 83.263 67.839 85.402 68.943 C 88.076 70.325 88.762 73.83 89.149 76.538 C 89.521 79.143 89.932 81.743 90.377 84.336 C 91.433 85.066 92.535 85.726 93.68 86.295 C 93.943 85.086 94.397 83.949 95.178 82.941 C 96.453 81.294 98.285 80.258 100.155 79.437 C 99.18 78.498 98.283 77.459 97.502 76.295 C 97.098 75.693 98.031 74.972 98.493 75.52 C 99.436 76.636 100.457 77.67 101.54 78.615 C 103.641 77.201 105.748 75.794 107.868 74.41 C 106.214 73.854 104.614 73.162 103.1 72.322 C 102.426 71.948 103.019 70.964 103.695 71.29 C 105.51 72.165 107.41 72.886 109.361 73.451 C 111.455 72.093 113.554 70.741 115.671 69.42 C 118.909 67.4 122.199 65.479 125.547 63.652 C 129.603 61.441 133.869 59.457 138.47 58.862 C 136.177 56.714 132.728 55.742 129.806 55.087 C 128.43 54.778 127.036 54.54 125.634 54.379 C 124.62 54.26 124.123 54.263 123.213 53.696 C 118.64 50.848 113.643 49.039 108.267 48.704 C 105.257 48.516 102.234 48.708 99.245 49.081 C 98.758 49.142 98.319 49.234 97.884 49.234 C 97.66 52.351 96.739 55.246 95.052 57.907 C 93.396 60.519 90.966 63.251 88.07 64.439 C 87.477 64.683 87.254 63.801 87.673 63.482 C 88.925 62.526 90.22 61.7 91.357 60.591 C 92.426 59.546 93.386 58.399 94.197 57.136 C 95.72 54.768 96.833 51.962 97.303 49.153 C 97.218 49.13 97.136 49.122 97.05 49.086 C 96.423 48.818 95.785 48.576 95.142 48.347 C 89.46 46.33 83.398 45.582 77.418 46.426 C 74.367 46.857 70.905 47.713 68.458 49.674 C 68.361 49.752 68.21 49.922 68.079 50.01 C 67.368 50.483 66.059 49.957 65.25 49.868 C 62.294 49.543 59.283 49.654 56.347 50.105 C 53.463 50.548 50.618 51.31 47.897 52.379 C 46.56 52.905 45.254 53.516 43.996 54.214 C 42.812 54.871 41.769 55.715 40.622 56.414 C 39.673 56.994 38.295 57.129 37.239 57.442 C 35.046 58.093 32.859 58.796 30.742 59.67 C 28.213 60.716 25.652 62.203 23.769 64.228 C 22.615 65.468 21.732 67.051 21.562 68.77 C 21.466 69.732 21.65 70.737 21.698 71.707 C 21.706 71.878 21.639 72.023 21.538 72.136 C 23.749 74.105 26.107 75.82 28.783 77.15 C 34.492 79.988 40.941 81.039 47.255 80.427 C 54.109 79.764 60.527 77.097 66.428 73.595 C 67.045 73.23 67.554 74.154 66.98 74.555 C 63.678 76.861 60.085 78.613 56.274 79.873 C 51.208 81.548 45.82 82.258 40.522 81.758 C 40.527 81.764 40.534 81.766 40.538 81.773 C 44.995 88.187 53.385 89.121 60.476 88.083 C 63.601 87.625 66.73 86.814 69.564 85.375 C 70.957 84.668 72.289 83.814 73.458 82.764 C 74.552 81.78 75.418 80.608 76.361 79.486 Z M 73.368 155.31 C 71.336 161.522 65.224 171.377 72.553 176.331 C 72.949 176.598 73.365 176.835 73.79 177.059 C 73.827 173.45 74.323 169.875 75.219 166.409 C 74.975 166.186 74.796 165.855 74.633 165.589 C 74.091 164.702 73.661 163.736 73.341 162.744 C 72.359 159.698 72.667 156.531 74.006 153.65 C 77.395 146.845 84.072 143.235 89.734 138.669 C 90.149 138.334 90.905 138.502 90.874 139.147 C 90.645 143.903 90.13 148.719 89.058 153.361 C 88.237 156.918 86.754 160.235 84.046 162.715 C 82.85 163.811 81.491 164.728 80.021 165.398 C 79.259 165.746 78.476 166.04 77.669 166.26 C 77.294 166.361 76.745 166.549 76.25 166.623 C 75.466 170.076 75.047 173.622 75.022 177.193 C 75.021 177.355 74.961 177.476 74.88 177.574 C 79.589 179.563 85.588 179.217 89.996 177.029 C 96.905 173.602 100.484 166.445 101.898 159.075 C 103.448 150.999 102.882 142.658 101.357 134.617 C 99.867 134.341 98.394 133.894 96.944 133.332 C 96.885 133.308 96.828 133.281 96.769 133.259 C 96.956 134.239 97.128 135.223 97.269 136.215 C 98.293 143.432 98.384 150.963 97.083 158.151 C 96.011 164.079 93.723 170.306 88.812 174.022 C 88.35 174.372 87.825 173.621 88.212 173.232 C 90.613 170.822 92.542 168.009 93.861 164.852 C 96.393 158.789 96.958 151.965 96.981 145.448 C 96.995 141.313 96.708 137.118 96.097 132.98 C 92.31 131.452 88.639 129.608 85.114 127.538 C 84.596 127.233 84.745 126.483 85.274 126.3 C 89.576 124.814 93.787 122.78 98.178 121.671 C 96.213 114.715 94.048 107.819 92.369 100.779 C 91.336 96.447 90.423 92.085 89.62 87.703 C 89.225 85.55 88.856 83.39 88.514 81.227 C 88.176 79.101 87.981 76.922 87.523 74.819 C 87.085 72.808 85.783 69.366 83.146 69.912 C 80.149 70.534 78.966 74.877 78.275 77.366 C 75.977 85.624 76.549 94.287 77.242 102.73 C 78.682 120.307 78.915 138.359 73.368 155.31 Z M 85.643 147.269 C 81.346 152.492 78.309 158.609 76.612 165.11 C 81.058 164.108 84.827 161.025 86.623 156.719 C 87.706 154.121 88.176 151.273 88.607 148.502 C 89.015 145.878 89.285 143.237 89.452 140.588 C 84.173 144.639 78.243 148.14 75.159 154.333 C 73.97 156.892 73.76 159.692 74.628 162.385 C 74.89 163.198 75.241 163.978 75.671 164.713 C 75.675 164.72 75.679 164.725 75.683 164.731 C 77.629 158.237 81.005 152.189 85.512 147.137 C 85.593 147.046 85.718 147.178 85.643 147.269 Z M 104.147 188.14 C 103.362 187.347 102.576 186.27 102.144 185.02 C 101.236 182.398 101.537 178.282 108.126 173.552 C 108.69 173.148 109.296 172.72 109.935 172.274 C 108.376 169.31 107.692 165.863 107.639 162.454 C 107.534 155.76 109.356 149.18 111.896 143.056 C 111.908 143.027 111.93 143.009 111.945 142.982 C 111.953 142.953 111.95 142.925 111.963 142.894 C 113.709 138.746 115.771 134.749 117.821 130.747 C 117.11 130.447 116.393 130.169 115.671 129.904 C 115.047 130.753 113.809 131.575 113.24 131.993 C 111.816 133.04 110.199 133.833 108.512 134.335 C 106.58 134.909 104.65 135.024 102.743 134.821 C 103.001 136.217 103.24 137.618 103.432 139.026 C 104.647 147.947 104.668 157.719 101.248 166.179 C 98.568 172.81 93.141 178.387 86.035 179.795 C 80.634 180.866 73.125 180.026 69.502 175.312 C 67.237 172.362 67.398 168.418 68.417 165.005 C 69.721 160.638 71.702 156.526 72.92 152.124 C 73.486 150.077 73.977 148.012 74.415 145.937 C 73.483 147.359 72.605 148.817 71.826 150.323 C 66.25 161.111 65.066 169.168 68.206 174.954 C 72.176 182.272 83.37 186.597 102.424 188.177 C 103 188.177 103.573 188.155 104.147 188.14 Z M 192.17 98.703 C 192.17 97.605 191.29 96.712 190.209 96.712 C 189.127 96.712 188.247 97.605 188.247 98.703 C 188.247 99.8 189.127 100.692 190.209 100.692 C 191.29 100.692 192.17 99.8 192.17 98.703 Z M 89.49 17.971 C 89.547 18.008 89.607 18.027 89.672 18.03 C 89.737 18.045 89.802 18.042 89.868 18.021 C 89.931 18.006 89.987 17.976 90.034 17.932 C 90.088 17.898 90.13 17.851 90.161 17.793 C 90.205 17.715 90.227 17.631 90.227 17.542 C 90.236 17.467 90.245 17.393 90.254 17.318 C 90.257 17.252 90.243 17.19 90.213 17.133 C 90.195 17.073 90.162 17.022 90.115 16.978 C 90.083 16.953 90.051 16.928 90.019 16.903 C 89.965 16.868 89.906 16.849 89.843 16.846 C 89.801 16.834 89.759 16.834 89.717 16.846 C 89.654 16.849 89.595 16.868 89.54 16.903 C 89.508 16.928 89.476 16.953 89.444 16.978 C 89.386 17.038 89.345 17.109 89.322 17.191 C 89.303 17.264 89.284 17.337 89.265 17.409 C 89.241 17.498 89.241 17.586 89.265 17.674 C 89.282 17.713 89.298 17.753 89.314 17.793 C 89.358 17.868 89.417 17.927 89.49 17.971 Z M 39.025 50.36 C 46.365 39.196 55.342 29.01 66.006 21.008 C 66.097 20.94 66.01 20.784 65.916 20.852 C 55.054 28.785 45.454 38.409 38.179 49.858 C 37.836 50.398 38.677 50.889 39.025 50.36 Z M 80.522 15.021 C 81.374 15.021 81.375 13.676 80.522 13.676 C 79.669 13.676 79.668 15.021 80.522 15.021 Z M 81.903 21.909 C 81.887 21.869 81.87 21.828 81.853 21.788 C 81.83 21.699 81.83 21.611 81.853 21.521 C 81.87 21.482 81.887 21.441 81.903 21.401 C 81.933 21.351 81.979 21.317 82.023 21.28 C 82.042 21.233 82.061 21.187 82.097 21.151 C 82.123 21.13 82.149 21.11 82.176 21.089 C 82.22 21.06 82.269 21.045 82.321 21.042 C 82.356 21.032 82.39 21.032 82.425 21.042 C 82.478 21.045 82.526 21.06 82.571 21.089 C 82.597 21.11 82.624 21.13 82.649 21.151 C 82.688 21.186 82.715 21.23 82.73 21.278 C 82.755 21.326 82.766 21.377 82.764 21.431 C 82.764 21.433 82.764 21.434 82.764 21.436 C 82.778 21.464 82.801 21.488 82.809 21.521 C 82.829 21.588 82.832 21.655 82.818 21.722 C 82.814 21.788 82.794 21.851 82.759 21.909 C 82.728 21.967 82.685 22.014 82.631 22.049 C 82.583 22.094 82.527 22.124 82.462 22.14 C 82.397 22.16 82.331 22.163 82.265 22.149 C 82.199 22.145 82.138 22.125 82.081 22.088 C 82.006 22.044 81.947 21.984 81.903 21.909 Z M 82.554 21.21 C 82.553 21.208 82.552 21.207 82.552 21.206 C 82.433 21.157 82.438 21.16 82.554 21.21 Z M 84.452 17.357 C 84.473 17.37 84.493 17.386 84.514 17.399 C 84.584 17.448 84.635 17.482 84.731 17.506 C 84.765 17.513 84.8 17.518 84.835 17.521 C 84.87 17.534 84.905 17.537 84.94 17.532 C 84.953 17.531 84.966 17.529 84.979 17.528 C 85.083 17.516 85.186 17.503 85.29 17.491 C 85.341 17.483 85.393 17.477 85.444 17.47 C 85.519 17.452 85.585 17.416 85.64 17.365 C 85.684 17.339 85.719 17.304 85.744 17.259 C 85.796 17.203 85.83 17.136 85.848 17.06 C 85.872 16.956 85.872 16.85 85.848 16.748 C 85.83 16.671 85.796 16.605 85.744 16.548 C 85.703 16.484 85.649 16.433 85.582 16.396 C 85.487 16.344 85.393 16.292 85.298 16.239 C 85.237 16.206 85.185 16.177 85.111 16.156 C 84.983 16.119 84.858 16.127 84.731 16.154 C 84.703 16.16 84.676 16.166 84.65 16.172 C 84.627 16.178 84.604 16.182 84.58 16.189 C 84.42 16.228 84.297 16.343 84.208 16.479 C 84.177 16.527 84.153 16.58 84.136 16.637 C 84.112 16.729 84.112 16.821 84.136 16.912 C 84.159 17.039 84.22 17.149 84.305 17.243 C 84.343 17.285 84.402 17.322 84.452 17.357 Z M 76.339 19.988 C 76.376 20.052 76.394 20.12 76.394 20.193 C 76.394 20.259 76.374 20.32 76.345 20.377 C 76.341 20.433 76.33 20.473 76.307 20.528 C 76.303 20.545 76.289 20.555 76.281 20.571 C 76.284 20.59 76.296 20.606 76.296 20.626 C 76.291 20.661 76.287 20.696 76.282 20.731 C 76.27 20.783 76.247 20.828 76.212 20.866 C 76.194 20.896 76.171 20.919 76.142 20.937 C 76.104 20.972 76.06 20.996 76.009 21.008 C 75.974 21.013 75.94 21.018 75.905 21.022 C 75.852 21.025 75.801 21.013 75.755 20.988 C 75.706 20.972 75.664 20.944 75.628 20.906 C 75.601 20.876 75.578 20.842 75.554 20.809 C 75.548 20.803 75.544 20.796 75.539 20.79 C 75.522 20.762 75.511 20.731 75.499 20.702 C 75.486 20.671 75.472 20.641 75.464 20.609 C 75.464 20.608 75.464 20.608 75.464 20.608 C 75.464 20.607 75.462 20.606 75.461 20.604 C 75.442 20.563 75.425 20.519 75.408 20.477 C 75.404 20.466 75.391 20.356 75.391 20.344 C 75.39 20.322 75.392 20.299 75.399 20.276 C 75.4 20.233 75.41 20.192 75.432 20.154 C 75.443 20.113 75.464 20.077 75.494 20.047 C 75.505 20.028 75.518 20.011 75.533 19.996 C 75.535 19.994 75.538 19.991 75.539 19.989 C 75.545 19.984 75.549 19.98 75.554 19.976 C 75.594 19.943 75.634 19.908 75.677 19.881 C 75.704 19.865 75.734 19.853 75.764 19.841 C 75.791 19.83 75.819 19.815 75.848 19.808 C 75.895 19.795 75.945 19.792 75.992 19.786 C 76.065 19.787 76.133 19.805 76.195 19.842 C 76.256 19.878 76.304 19.927 76.339 19.988 Z M 75.458 20.566 C 75.452 20.53 75.447 20.493 75.443 20.457 C 75.448 20.493 75.452 20.528 75.457 20.564 C 75.457 20.565 75.457 20.566 75.458 20.566 Z" class="svg-style-0" style=""/>
</svg>